<svg id="calendar" xmlns="http://www.w3.org/2000/svg" width="25.357" height="25.357" viewBox="0 0 25.357 25.357">
  <g id="Grupo_252" data-name="Grupo 252" transform="translate(0 2.113)">
    <g id="Grupo_251" data-name="Grupo 251">
      <path id="Caminho_740" data-name="Caminho 740" d="M21.659,42.667H20.6a.528.528,0,1,0,0,1.057h1.057A2.644,2.644,0,0,1,24.3,46.365V62.213a2.644,2.644,0,0,1-2.641,2.641H3.7a2.644,2.644,0,0,1-2.641-2.641V46.365A2.644,2.644,0,0,1,3.7,43.724H4.754a.528.528,0,1,0,0-1.057H3.7a3.7,3.7,0,0,0-3.7,3.7V62.213a3.7,3.7,0,0,0,3.7,3.7H21.659a3.7,3.7,0,0,0,3.7-3.7V46.365A3.7,3.7,0,0,0,21.659,42.667Z" transform="translate(0 -42.667)" fill="#3f5368"/>
    </g>
  </g>
  <g id="Grupo_254" data-name="Grupo 254" transform="translate(8.452 2.113)">
    <g id="Grupo_253" data-name="Grupo 253">
      <path id="Caminho_741" data-name="Caminho 741" d="M178.59,42.667h-7.4a.528.528,0,1,0,0,1.057h7.4a.528.528,0,1,0,0-1.057Z" transform="translate(-170.666 -42.667)" fill="#3f5368"/>
    </g>
  </g>
  <g id="Grupo_256" data-name="Grupo 256" transform="translate(0 7.396)">
    <g id="Grupo_255" data-name="Grupo 255">
      <path id="Caminho_742" data-name="Caminho 742" d="M24.828,149.333H.528a.528.528,0,1,0,0,1.057h24.3a.528.528,0,1,0,0-1.057Z" transform="translate(0 -149.333)" fill="#3f5368"/>
    </g>
  </g>
  <g id="Grupo_258" data-name="Grupo 258" transform="translate(6.339)">
    <g id="Grupo_257" data-name="Grupo 257">
      <path id="Caminho_743" data-name="Caminho 743" d="M128.528,0A.528.528,0,0,0,128,.528V4.754a.528.528,0,0,0,1.057,0V.528A.529.529,0,0,0,128.528,0Z" transform="translate(-128)" fill="#3f5368"/>
    </g>
  </g>
  <g id="Grupo_260" data-name="Grupo 260" transform="translate(17.961)">
    <g id="Grupo_259" data-name="Grupo 259">
      <path id="Caminho_744" data-name="Caminho 744" d="M363.194,0a.528.528,0,0,0-.528.528V4.754a.528.528,0,1,0,1.057,0V.528A.528.528,0,0,0,363.194,0Z" transform="translate(-362.666)" fill="#3f5368"/>
    </g>
  </g>
  <g id="Grupo_262" data-name="Grupo 262" transform="translate(6.339 11.622)">
    <g id="Grupo_261" data-name="Grupo 261">
      <path id="Caminho_745" data-name="Caminho 745" d="M132.224,239.421A2.641,2.641,0,1,0,128,237.308a.528.528,0,0,0,1.057,0,1.585,1.585,0,1,1,1.585,1.585h-1.057a.528.528,0,0,0,0,1.057h1.056a1.585,1.585,0,1,1-1.585,1.585.528.528,0,0,0-1.057,0,2.641,2.641,0,1,0,4.224-2.113Z" transform="translate(-128 -234.667)" fill="#3f5368"/>
    </g>
  </g>
  <g id="Grupo_264" data-name="Grupo 264" transform="translate(13.736 11.621)">
    <g id="Grupo_263" data-name="Grupo 263">
      <path id="Caminho_746" data-name="Caminho 746" d="M280.192,234.7a.528.528,0,0,0-.576.114l-2.113,2.113a.528.528,0,1,0,.747.747l1.211-1.211v7.177a.528.528,0,0,0,1.057,0V235.19A.529.529,0,0,0,280.192,234.7Z" transform="translate(-277.349 -234.661)" fill="#3f5368"/>
    </g>
  </g>
  <g id="Grupo_266" data-name="Grupo 266" transform="translate(13.735 20.074)">
    <g id="Grupo_265" data-name="Grupo 265">
      <path id="Caminho_747" data-name="Caminho 747" d="M282.087,405.333h-4.226a.528.528,0,1,0,0,1.057h4.226a.528.528,0,1,0,0-1.057Z" transform="translate(-277.333 -405.333)" fill="#3f5368"/>
    </g>
  </g>
</svg>
