<svg id="dashboard" xmlns="http://www.w3.org/2000/svg" width="25.546" height="25.591" viewBox="0 0 25.546 25.591">
  <path id="Caminho_734" data-name="Caminho 734" d="M9.866,8.533h-8A1.869,1.869,0,0,1,0,6.666v-4.8A1.869,1.869,0,0,1,1.866,0h8a1.869,1.869,0,0,1,1.867,1.866v4.8A1.869,1.869,0,0,1,9.866,8.533Zm-8-6.933a.267.267,0,0,0-.267.267v4.8a.267.267,0,0,0,.267.267h8a.267.267,0,0,0,.267-.267v-4.8A.267.267,0,0,0,9.866,1.6Zm0,0" fill="#7081fa"/>
  <path id="Caminho_735" data-name="Caminho 735" d="M9.866,228.264h-8A1.868,1.868,0,0,1,0,226.4V215.2a1.869,1.869,0,0,1,1.866-1.867h8a1.869,1.869,0,0,1,1.867,1.867v11.2A1.869,1.869,0,0,1,9.866,228.264Zm-8-13.332a.267.267,0,0,0-.267.267v11.2a.267.267,0,0,0,.267.267h8a.267.267,0,0,0,.267-.267V215.2a.267.267,0,0,0-.267-.267Zm0,0" transform="translate(0 -202.673)" fill="#7081fa"/>
  <path id="Caminho_736" data-name="Caminho 736" d="M287.2,349.865h-8A1.869,1.869,0,0,1,277.332,348v-4.8a1.869,1.869,0,0,1,1.867-1.867h8a1.869,1.869,0,0,1,1.867,1.867V348A1.869,1.869,0,0,1,287.2,349.865Zm-8-6.933a.267.267,0,0,0-.267.267V348a.267.267,0,0,0,.267.267h8a.267.267,0,0,0,.267-.267v-4.8a.267.267,0,0,0-.267-.267Zm0,0" transform="translate(-263.519 -324.273)" fill="#7081fa"/>
  <path id="Caminho_737" data-name="Caminho 737" d="M287.2,14.932h-8a1.869,1.869,0,0,1-1.867-1.867V1.866A1.869,1.869,0,0,1,279.2,0h8a1.869,1.869,0,0,1,1.867,1.866v11.2A1.869,1.869,0,0,1,287.2,14.932ZM279.2,1.6a.267.267,0,0,0-.267.267v11.2a.267.267,0,0,0,.267.267h8a.267.267,0,0,0,.267-.267V1.866A.267.267,0,0,0,287.2,1.6Zm0,0" transform="translate(-263.519)" fill="#7081fa"/>
</svg>
