<svg xmlns="http://www.w3.org/2000/svg" width="153.931" height="44.363" viewBox="0 0 153.931 44.363">
  <g id="Grupo_27" data-name="Grupo 27" transform="translate(-38 -23.165)">
    <g id="doctor" transform="translate(38 23.165)">
      <path id="Caminho_730" data-name="Caminho 730" d="M110.733,50.763H106.9V43.885A11.98,11.98,0,0,0,117.611,32V23.939a1.447,1.447,0,0,0-1.474-1.474H112.7v2.948h1.965V32a8.995,8.995,0,0,1-8.99,8.99h-.688A8.995,8.995,0,0,1,96,32V25.413h2.112V22.465H94.521a1.447,1.447,0,0,0-1.474,1.474V32a11.966,11.966,0,0,0,10.906,11.889v6.878H99.188a7.037,7.037,0,0,0-4.913,2.014,6.823,6.823,0,0,0-2.063,4.962,7.014,7.014,0,0,0,7.025,6.976h.688a7,7,0,0,0,6.976-6.976V53.711h3.832a4.544,4.544,0,0,1,0-2.948Zm-6.78,6.976a4.047,4.047,0,0,1-4.029,4.029h-.688a4,4,0,0,1-4.078-4.029,3.856,3.856,0,0,1,1.179-2.849,3.935,3.935,0,0,1,2.849-1.179h4.765v4.029Z" transform="translate(-92.212 -20.353)" fill="#3f5368"/>
      <g id="Grupo_26" data-name="Grupo 26" transform="translate(5.404)">
        <path id="Caminho_731" data-name="Caminho 731" d="M285.957,289.959a4.67,4.67,0,0,0-4.372,3.144,4.545,4.545,0,0,0,0,2.948,4.67,4.67,0,0,0,4.372,3.144,4.618,4.618,0,1,0,0-9.236Z" transform="translate(-268.959 -262.693)" fill="#7081fa"/>
        <path id="Caminho_732" data-name="Caminho 732" d="M286.9,1.474a1.474,1.474,0,0,0-2.948,0V5.6a1.474,1.474,0,1,0,2.948,0V1.474Z" transform="translate(-271.325)" fill="#7081fa"/>
        <path id="Caminho_733" data-name="Caminho 733" d="M149.682,5.6a1.474,1.474,0,0,0,2.948,0V1.474a1.474,1.474,0,0,0-2.948,0V5.6Z" transform="translate(-149.682)" fill="#7081fa"/>
      </g>
    </g>
    <text id="iDoctor" transform="translate(78.931 55.219)" fill="#3f5368" font-size="30" font-family="Montserrat-SemiBold, Montserrat" font-weight="600" letter-spacing="-0.012em"><tspan x="0" y="0">iDoctor</tspan></text>
  </g>
</svg>
