<svg xmlns="http://www.w3.org/2000/svg" width="22.468" height="25.625" viewBox="0 0 22.468 25.625">
  <g id="businessman" transform="translate(-30.556)">
    <g id="Grupo_269" data-name="Grupo 269" transform="translate(30.556)">
      <g id="Grupo_268" data-name="Grupo 268" transform="translate(0)">
        <path id="Caminho_748" data-name="Caminho 748" d="M52.113,293.28a4.536,4.536,0,0,0-3.047-3.566l-3.556-1.185V288h-.827v.775l-.617,2.468-1.669-2H41.183l-1.669,2-.617-2.468V288H38.07v.529l-3.556,1.185a4.537,4.537,0,0,0-3.047,3.566l-.911,5.466H53.024Zm-12.334,4.64H35.221l.368-3.678-.822-.082-.376,3.761H31.532l.751-4.5a3.712,3.712,0,0,1,2.493-2.918l3.415-1.139.916,3.663.932-1.118.493.74Zm3.188,0H40.613l.782-5.471-.8-1.206.98-1.175h.439l.98,1.175-.8,1.206Zm6.224,0-.376-3.761-.822.082.368,3.678H43.8l-.753-5.275.493-.74.932,1.118.916-3.663L48.8,290.5a3.712,3.712,0,0,1,2.493,2.918l.751,4.5Z" transform="translate(-30.556 -273.121)" fill="#3f5368"/>
        <path id="Caminho_749" data-name="Caminho 749" d="M113.84,11.136a4.518,4.518,0,0,0,1.149,1.939l1.612,1.612a2.052,2.052,0,0,0,1.461.605H120a2.053,2.053,0,0,0,1.461-.605l1.612-1.612a4.521,4.521,0,0,0,1.149-1.939,2.052,2.052,0,0,0,1-3.7h.013V4.96a2.07,2.07,0,0,0-1.758-2.043A4.423,4.423,0,0,0,119.328,0h-.3a6.207,6.207,0,0,0-6.2,6.2V7.44h.013a2.052,2.052,0,0,0,1,3.7Zm9.737-1.276a3.7,3.7,0,0,1-1.089,2.631L120.875,14.1a1.248,1.248,0,0,1-.877.363h-1.937a1.249,1.249,0,0,1-.877-.363l-1.612-1.612a3.7,3.7,0,0,1-1.089-2.63V7.853h1.624a7.415,7.415,0,0,0,4.9-1.829l.126.211a3.351,3.351,0,0,0,2.445,1.591Zm1.653-.768a1.237,1.237,0,0,1-.846,1.17c.012-.133.019-.267.019-.4V7.929A1.238,1.238,0,0,1,125.23,9.093ZM113.657,6.2A5.379,5.379,0,0,1,119.03.827h.3a3.591,3.591,0,0,1,3.438,2.594l.086.3h.312a1.241,1.241,0,0,1,1.24,1.24V7.068a2.065,2.065,0,0,0-.413-.042,2.519,2.519,0,0,1-2.15-1.217l-.662-1.1-.374.374a6.6,6.6,0,0,1-4.7,1.945h-2.037a2.065,2.065,0,0,0-.413.042Zm0,1.729V9.861c0,.135.008.269.019.4a1.232,1.232,0,0,1-.019-2.334Z" transform="translate(-107.796)" fill="#3f5368"/>
      </g>
    </g>
  </g>
</svg>
