<svg xmlns="http://www.w3.org/2000/svg" width="368.828" height="322.582" viewBox="0 0 368.828 322.582">
  <g id="Grupo_605" data-name="Grupo 605" transform="translate(-868.172 -133)">
    <path id="Caminho_504" data-name="Caminho 504" d="M631.112,140.226c-3.7,9.252-9.612,24.209-12.334,31.081a3.952,3.952,0,0,0,2.219,5.12l25.278,10.07a3.944,3.944,0,0,0,5.129-2.21l12.262-30.83a8.767,8.767,0,0,0-4.9-11.4h0l1.8-4.491L644.012,131l-1.707,4.258h-.063A8.767,8.767,0,0,0,631.112,140.226Z" transform="translate(276.44 244.757)" fill="#f5f5f5"/>
    <path id="Caminho_505" data-name="Caminho 505" d="M646.557,131.61l-.818,2.057,16.313,7.186,1.06-2.65Z" transform="translate(273.674 244.695)" fill="#e0e0e0"/>
    <path id="Caminho_506" data-name="Caminho 506" d="M2.686,0H19.3A2.7,2.7,0,0,1,21.99,2.695v4.42a1.734,1.734,0,0,1-1.734,1.734H1.734A1.734,1.734,0,0,1,0,7.114V2.695A2.7,2.7,0,0,1,2.695,0Z" transform="matrix(0.929, 0.37, -0.37, 0.929, 921.551, 368.68)" fill="#ebebeb"/>
    <path id="Caminho_507" data-name="Caminho 507" d="M646.84,131.043A17.427,17.427,0,0,1,648,127.62a17.709,17.709,0,0,1,1.52-3.29,17.573,17.573,0,0,1-1.158,3.445A16.468,16.468,0,0,1,646.84,131.043Z" transform="translate(273.574 245.75)" fill="#e0e0e0"/>
    <path id="Caminho_508" data-name="Caminho 508" d="M649.27,132.132a17.881,17.881,0,0,1,1.179-3.491A16.751,16.751,0,0,1,652,125.3a17.881,17.881,0,0,1-1.179,3.491,16.755,16.755,0,0,1-1.547,3.341Z" transform="translate(273.679 245.651)" fill="#e0e0e0"/>
    <path id="Caminho_509" data-name="Caminho 509" d="M651.7,133.189a17.944,17.944,0,0,1,1.194-3.537,17.184,17.184,0,0,1,1.567-3.392,17.765,17.765,0,0,1-1.194,3.537A18.259,18.259,0,0,1,651.7,133.189Z" transform="translate(273.974 245.654)" fill="#e0e0e0"/>
    <path id="Caminho_510" data-name="Caminho 510" d="M654.13,134.176a16.8,16.8,0,0,1,1.245-3.546,16.927,16.927,0,0,1,1.633-3.4,17.435,17.435,0,0,1-1.253,3.546,17.97,17.97,0,0,1-1.625,3.4Z" transform="translate(274.007 245.82)" fill="#e0e0e0"/>
    <path id="Caminho_511" data-name="Caminho 511" d="M656.56,135.458a18.35,18.35,0,0,1,1.252-3.709,18.624,18.624,0,0,1,1.6-3.549,18.346,18.346,0,0,1-1.252,3.709,18.62,18.62,0,0,1-1.6,3.549Z" transform="translate(274.176 245.585)" fill="#e0e0e0"/>
    <path id="Caminho_512" data-name="Caminho 512" d="M659,136.215a18.2,18.2,0,0,1,1.224-3.6,18.593,18.593,0,0,1,1.588-3.454,17.5,17.5,0,0,1-1.216,3.6A17.491,17.491,0,0,1,659,136.215Z" transform="translate(274.409 246.073)" fill="#e0e0e0"/>
    <path id="Caminho_513" data-name="Caminho 513" d="M661.41,137.114a17.909,17.909,0,0,1,1.2-3.565,18.392,18.392,0,0,1,1.579-3.419,18.088,18.088,0,0,1-1.2,3.565A17.324,17.324,0,0,1,661.41,137.114Z" transform="translate(274.56 246.046)" fill="#e0e0e0"/>
    <path id="Caminho_514" data-name="Caminho 514" d="M663.84,137.792a17.367,17.367,0,0,1,1.155-3.412,16.61,16.61,0,0,1,1.515-3.28,17.523,17.523,0,0,1-1.155,3.42A16.916,16.916,0,0,1,663.84,137.792Z" transform="translate(274.056 246.229)" fill="#e0e0e0"/>
    <rect id="Retângulo_8" data-name="Retângulo 8" width="25.53" height="16.888" rx="1.48" transform="matrix(0.929, 0.37, -0.37, 0.929, 910.101, 391.308)" fill="#ebebeb"/>
    <path id="Caminho_515" data-name="Caminho 515" d="M651.48,171.862a2.489,2.489,0,0,1,.09-.27l.27-.737,1.051-2.776c.9-2.4,2.246-5.785,3.845-9.881l.1.243-20.8-8.237c-.063,0,.575-.243.305-.126h0v.054l-.045.117-.09.225-.18.449-.359.9c-.243.593-.476,1.186-.71,1.8-.467,1.177-.9,2.336-1.392,3.476l-2.623,6.549-.117-.278L645.7,169.4l4.276,1.8,1.15.485a4.128,4.128,0,0,1,.4.189l-.377-.126-1.123-.422-4.276-1.635-15.091-5.9-.2-.072.081-.207c.826-2.084,1.689-4.276,2.6-6.558.449-1.141.9-2.3,1.383-3.476.234-.593.467-1.186.71-1.8l.35-.9.189-.449.09-.225.045-.117v-.054h0l.314-.135L657,158.064l.171.072-.072.171c-1.689,4.132-3.081,7.528-4.06,9.944l-1.132,2.695-.3.692Q651.5,171.88,651.48,171.862Z" transform="translate(274.834 242.845)" fill="#e0e0e0"/>
    <path id="Caminho_516" data-name="Caminho 516" d="M652.756,162.043a62.942,62.942,0,0,1-7.186-2.6,62.057,62.057,0,0,1-6.98-3.027,61.329,61.329,0,0,1,7.186,2.6,62.342,62.342,0,0,1,6.98,3.027Z" transform="translate(273.806 242.172)" fill="#e0e0e0"/>
    <path id="Caminho_517" data-name="Caminho 517" d="M651.7,164.713a60.676,60.676,0,0,1-7.186-2.6,63.922,63.922,0,0,1-6.98-3.027,61.977,61.977,0,0,1,7.186,2.6,62.991,62.991,0,0,1,6.98,3.027Z" transform="translate(273.737 241.9)" fill="#e0e0e0"/>
    <path id="Caminho_518" data-name="Caminho 518" d="M650.676,167.283a60.041,60.041,0,0,1-7.186-2.6,62.992,62.992,0,0,1-6.98-3.027,60.666,60.666,0,0,1,7.186,2.6A63.918,63.918,0,0,1,650.676,167.283Z" transform="translate(273.671 241.639)" fill="#e0e0e0"/>
    <path id="Caminho_519" data-name="Caminho 519" d="M660.585,142.075a72.99,72.99,0,0,1-7.788-2.848,74.732,74.732,0,0,1-7.626-3.288,71.187,71.187,0,0,1,7.8,2.848A73.994,73.994,0,0,1,660.585,142.075Z" transform="translate(274.39 244.255)" fill="#e0e0e0"/>
    <path id="Caminho_520" data-name="Caminho 520" d="M621.12,170.727a10.367,10.367,0,0,1,.5-1.491c.386-1.015.9-2.363,1.527-4,1.3-3.369,3.135-8,5.192-13.115,1.033-2.551,2.012-4.986,2.919-7.186a15.45,15.45,0,0,1,3.279-5.462,6.889,6.889,0,0,1,3.818-1.949,5.138,5.138,0,0,1,1.177,0,1.508,1.508,0,0,1,.4.1,10.339,10.339,0,0,0-1.545.09,7,7,0,0,0-3.593,2,15.479,15.479,0,0,0-3.117,5.39c-.9,2.228-1.859,4.662-2.883,7.186-2.048,5.111-3.935,9.738-5.318,13.07l-1.662,3.935A9.272,9.272,0,0,1,621.12,170.727Z" transform="translate(276.232 244.097)" fill="#fff"/>
    <path id="Caminho_521" data-name="Caminho 521" d="M649.41,191.247a6.192,6.192,0,0,1-.988-.8c-.305-.279-.692-.6-1.15-.961s-.952-.8-1.554-1.222a43.757,43.757,0,0,0-4.285-2.839,46.008,46.008,0,0,0-5.65-2.695,46.506,46.506,0,0,0-5.992-1.9,43.661,43.661,0,0,0-5.057-.9c-.728-.108-1.392-.135-1.967-.189s-1.087-.072-1.491-.081a7.63,7.63,0,0,1-1.276-.1,6.289,6.289,0,0,1,1.276-.09h1.5a12.063,12.063,0,0,1,1.985.117,39.591,39.591,0,0,1,5.129.79,44.585,44.585,0,0,1,6.073,1.877,43.678,43.678,0,0,1,5.7,2.812,40.2,40.2,0,0,1,4.267,2.946c.584.44,1.078.9,1.518,1.285a14.517,14.517,0,0,1,1.1,1.024,6.851,6.851,0,0,1,.871.916Z" transform="translate(276.462 238.827)" fill="#fff"/>
    <rect id="Retângulo_9" data-name="Retângulo 9" width="81.52" height="111.991" rx="2.41" transform="translate(918.283 249.457) rotate(-25.7)" fill="#e0e0e0"/>
    <rect id="Retângulo_10" data-name="Retângulo 10" width="72.421" height="104.238" transform="translate(924.681 251.406) rotate(-25.7)" fill="#fafafa"/>
    <path id="Caminho_522" data-name="Caminho 522" d="M101.23,199.525a8.857,8.857,0,0,0-9.279-.97l-2-3.944a6.081,6.081,0,0,0-8.085-2.848h0a6.09,6.09,0,0,0-2.848,8.139l2,4.159-1.392.7a8.884,8.884,0,0,0-4.9,7.815v2.066l28.413-13.672Zm-15.163.647a3.279,3.279,0,1,1,1.678-1.873,3.279,3.279,0,0,1-1.678,1.873Z" transform="translate(863.292 25.436)" fill="#ebebeb"/>
    <path id="Caminho_523" data-name="Caminho 523" d="M84.423,225.329c.063.117-3.854,2.12-8.74,4.491a89.5,89.5,0,0,1-8.983,4.042c-.09-.117,3.854-2.12,8.74-4.491A93.877,93.877,0,0,1,84.423,225.329Z" transform="translate(858.387 25.963)" fill="#e0e0e0"/>
    <path id="Caminho_524" data-name="Caminho 524" d="M76.865,233.56a24,24,0,0,1-4.159,2.264,23.778,23.778,0,0,1-4.366,1.8,24.254,24.254,0,0,1,4.186-2.219,25.08,25.08,0,0,1,4.339-1.842Z" transform="translate(857.351 25.125)" fill="#e0e0e0"/>
    <path id="Caminho_525" data-name="Caminho 525" d="M122.985,220.55c.054.108-10.923,5.516-24.524,12.055S73.794,244.364,73.74,244.283s10.923-5.551,24.488-12.1S122.931,220.433,122.985,220.55Z" transform="translate(863.016 26.448)" fill="#e0e0e0"/>
    <path id="Caminho_526" data-name="Caminho 526" d="M125.5,225.77c.054.117-10.923,5.516-24.524,12.064S76.314,249.593,76.26,249.512,87.174,244,100.783,237.448,125.433,225.653,125.5,225.77Z" transform="translate(863.2 25.918)" fill="#e0e0e0"/>
    <path id="Caminho_527" data-name="Caminho 527" d="M128.015,231c.063.117-10.923,5.516-24.515,12.064s-24.667,11.759-24.73,11.678,10.923-5.516,24.524-12.064S127.961,230.883,128.015,231Z" transform="translate(863.382 25.386)" fill="#e0e0e0"/>
    <path id="Caminho_528" data-name="Caminho 528" d="M130.535,236.23c.054.117-10.923,5.516-24.524,12.064s-24.667,11.75-24.721,11.678,10.923-5.516,24.524-12.055S130.481,236.113,130.535,236.23Z" transform="translate(863.565 24.854)" fill="#e0e0e0"/>
    <path id="Caminho_529" data-name="Caminho 529" d="M133.055,241.45c.054.117-10.923,5.525-24.524,12.064S83.864,265.273,83.81,265.192s10.95-5.551,24.515-12.1S132.992,241.342,133.055,241.45Z" transform="translate(863.749 24.323)" fill="#e0e0e0"/>
    <path id="Caminho_530" data-name="Caminho 530" d="M135.565,246.68c.054.117-10.923,5.516-24.515,12.064S86.374,270.5,86.32,270.422s10.923-5.516,24.524-12.064S135.511,246.563,135.565,246.68Z" transform="translate(863.931 23.791)" fill="#e0e0e0"/>
    <path id="Caminho_531" data-name="Caminho 531" d="M113.212,264.59a4.545,4.545,0,0,1-.9.548l-2.605,1.339c-2.21,1.1-5.282,2.614-8.678,4.249s-6.495,3.1-8.74,4.132l-2.695,1.2a4.359,4.359,0,0,1-1.006.377,5.6,5.6,0,0,1,.9-.548l2.605-1.329c2.21-1.114,5.282-2.623,8.678-4.258s6.495-3.09,8.74-4.123l2.695-1.2a4.758,4.758,0,0,1,1.006-.386Z" transform="translate(860.73 21.969)" fill="#e0e0e0"/>
    <path id="Caminho_532" data-name="Caminho 532" d="M123.757,206.35a20.734,20.734,0,0,1-3.845,2.111,20.472,20.472,0,0,1-4.042,1.689,20.734,20.734,0,0,1,3.845-2.111,20.47,20.47,0,0,1,4.042-1.689Z" transform="translate(860.297 27.892)" fill="#e0e0e0"/>
    <path id="Caminho_533" data-name="Caminho 533" d="M107.553,282a52.781,52.781,0,0,1-6.288,3.288,54.3,54.3,0,0,1-6.495,2.866,52.791,52.791,0,0,1,6.288-3.288A54.3,54.3,0,0,1,107.553,282Z" transform="translate(859.586 20.199)" fill="#e0e0e0"/>
    <path id="Caminho_534" data-name="Caminho 534" d="M110.308,286.5a54.57,54.57,0,0,1-6.4,3.333,55.191,55.191,0,0,1-6.6,2.92,56.313,56.313,0,0,1,6.4-3.342,55.942,55.942,0,0,1,6.6-2.911Z" transform="translate(859.778 19.741)" fill="#e0e0e0"/>
    <path id="Caminho_535" data-name="Caminho 535" d="M149.3,261.39a12.3,12.3,0,0,1-2.982,1.7,12.573,12.573,0,0,1-3.2,1.276,13.086,13.086,0,0,1,2.991-1.7,12.951,12.951,0,0,1,3.189-1.276Z" transform="translate(861.795 22.295)" fill="#e0e0e0"/>
    <path id="Caminho_536" data-name="Caminho 536" d="M151.57,265.55a13.087,13.087,0,0,1-2.991,1.7,12.954,12.954,0,0,1-3.189,1.276,12.3,12.3,0,0,1,2.982-1.7A12.576,12.576,0,0,1,151.57,265.55Z" transform="translate(861.939 21.872)" fill="#e0e0e0"/>
    <path id="Caminho_537" data-name="Caminho 537" d="M106.864,294.68a12.036,12.036,0,0,1-2.884,1.644,12.128,12.128,0,0,1-3.09,1.231,12.237,12.237,0,0,1,2.884-1.689,12.021,12.021,0,0,1,3.09-1.186Z" transform="translate(859.097 18.909)" fill="#e0e0e0"/>
    <path id="Caminho_538" data-name="Caminho 538" d="M154.394,270.42a6.656,6.656,0,0,1-2.129,1.285,7.184,7.184,0,0,1-2.345.9,6.692,6.692,0,0,1,2.138-1.294A6.809,6.809,0,0,1,154.394,270.42Z" transform="translate(861.989 21.376)" fill="#e0e0e0"/>
    <path id="Caminho_539" data-name="Caminho 539" d="M105.87,308.294a1.575,1.575,0,0,1,.252-.189l.755-.5,2.9-1.859,10.429-6.549.207-.135.09.225a5.92,5.92,0,0,1,.117,3.961,4.833,4.833,0,0,1-2.875,3.108,4.779,4.779,0,0,1-4.491-.494,4.177,4.177,0,0,1-1.482-4.375,3.872,3.872,0,0,1,.9-1.635,2.91,2.91,0,0,1,.341-.323,1.8,1.8,0,0,1,.4-.278.683.683,0,0,1,.629,0,1.087,1.087,0,0,1,.359.413,7.833,7.833,0,0,1,.9,3.324,7.743,7.743,0,0,1-.512,3.279,4.967,4.967,0,0,1-1.931,2.56,2.866,2.866,0,0,1-3.036-.063,4.366,4.366,0,0,1-1.8-2.255,10.5,10.5,0,0,1,0-5.075l.054-.341.234.261a7.088,7.088,0,0,1,1.716,3.872,7.617,7.617,0,0,1-.305,3.189,6.793,6.793,0,0,1-.9,1.8c-.144.189-.26.314-.341.4s-.117.135-.126.126a8.363,8.363,0,0,0,1.195-2.389,7.68,7.68,0,0,0,.216-3.1,6.782,6.782,0,0,0-1.7-3.683l.287-.081a10.106,10.106,0,0,0,0,4.887A3.943,3.943,0,0,0,110,308.4a2.443,2.443,0,0,0,2.6.045,4.608,4.608,0,0,0,1.743-2.345,7.528,7.528,0,0,0,.467-3.108,7.4,7.4,0,0,0-.9-3.117.557.557,0,0,0-.189-.242.2.2,0,0,0-.2,0,2.211,2.211,0,0,0-.584.485,3.377,3.377,0,0,0-.755,1.428,3.719,3.719,0,0,0,1.312,3.89,4.339,4.339,0,0,0,4.006.449,4.4,4.4,0,0,0,2.623-2.821,5.471,5.471,0,0,0-.081-3.674l.3.1-10.519,6.4-2.964,1.8-.782.449A1.193,1.193,0,0,1,105.87,308.294Z" transform="translate(860.602 18.464)" fill="#e0e0e0"/>
    <path id="Caminho_540" data-name="Caminho 540" d="M156.546,283.608a2.7,2.7,0,0,1-.144.844,3.594,3.594,0,0,1-.413.952,2.013,2.013,0,0,1-1.123.9,1.392,1.392,0,0,1-.9,0,1.8,1.8,0,0,1-.755-.584,17.073,17.073,0,0,1-1.006-1.707l-2.2-4.114.4-.09c-.072,2.057-.144,4.3-.234,6.656a14.526,14.526,0,0,1-.063,1.662v.9l-.4-.835c-1.231-2.524-2.372-4.887-3.378-6.935h.377a23.923,23.923,0,0,0-.9,6.288c0,1.536.1,2.407.054,2.416a2.076,2.076,0,0,1-.135-.629,17.761,17.761,0,0,1-.153-1.8,21.909,21.909,0,0,1,.7-6.369l.135-.521.234.485,3.44,6.908-.449.09a14.922,14.922,0,0,1,.063-1.662c.1-2.354.189-4.6.269-6.656V279l.368.71c.79,1.482,1.518,2.866,2.174,4.105a17.958,17.958,0,0,0,.943,1.7,1.2,1.2,0,0,0,1.3.548,2.3,2.3,0,0,0,1.464-1.6,6.773,6.773,0,0,1,.323-.853Z" transform="translate(862.618 20.504)" fill="#e0e0e0"/>
    <path id="Caminho_541" data-name="Caminho 541" d="M155.785,280.39c.072.1-3.638,2.749-8.282,5.911s-8.471,5.632-8.543,5.525,3.593-2.749,8.282-5.911S155.713,280.282,155.785,280.39Z" transform="translate(863.008 20.363)" fill="#e0e0e0"/>
    <path id="Caminho_542" data-name="Caminho 542" d="M161.35,281.26a70.815,70.815,0,0,1-6.072,5.525,71.521,71.521,0,0,1-6.378,5.174,72.629,72.629,0,0,1,6.072-5.525A71.537,71.537,0,0,1,161.35,281.26Z" transform="translate(863.039 20.274)" fill="#e0e0e0"/>
    <g id="freepik--character-1--inject-2" transform="translate(921.511 10.836)">
      <path id="Caminho_620" data-name="Caminho 620" d="M250.392,151.77c.118-4.275-3.824-7.569-7.844-9.138s-8.393-2.157-11.942-4.539c-3.137-2.118-5.245-5.412-7.9-8.1a26.305,26.305,0,0,0-44.238,12.069c-1.52,6.079-.48,13.265,4.314,17.315,5.569,4.687,13.814,3.647,20.942,2.186s15.207-2.941,21.158,1.284c3.588,2.53,5.647,6.638,7.844,10.442s4.9,7.677,9.1,9.108,9.8-1.039,9.951-5.422" transform="translate(-2.325 0)" fill="#263238"/>
      <path id="Caminho_621" data-name="Caminho 621" d="M249.84,154.369c-.471,3.579,2.118,6.785,4.7,9.314s5.491,5.206,5.951,8.824c.529,4.186-2.53,8.3-1.637,12.432.559,2.618,2.6,4.628,3.833,7.01a14.942,14.942,0,0,1,.755,10.971c-1.059,3.608-2.755,11.657-5.265,14.462-6.932,7.746-17.962,14.432-28.09,16.756s-20.658,2.343-31.031,1.706c-8.491-.52-18.266-.127-25.344-11.814-3.667-6.059-5.481-14.1-7.422-20.9-1.686-5.883-3.137-12.128-1.392-17.972.98-3.392,3.069-6.422,4.069-9.8,1.255-4.255.794-8.824,1.294-13.207a30.306,30.306,0,0,1,43.14-23.933" transform="translate(-2.057 -0.256)" fill="#263238"/>
      <path id="Caminho_622" data-name="Caminho 622" d="M174.513,169.2c.794-12.187,8.9-27.129,21.05-25.815l37.9,9.667a7.167,7.167,0,0,1,6.383,7.265l-4.265,91.456.265.049s-8.638,25.8-33.708,17.923c-4.971-1.569-7.245-7-8.226-12.6h-.255v-1.961a60.034,60.034,0,0,1-.147-12.56h0c-.069-7.383-.059-10.4-.069-10.334s-15.569-2.628-18.746-22.952C173.082,199.313,173.631,182.743,174.513,169.2Z" transform="translate(-2.244 -0.413)" fill="#ffbe9d"/>
      <path id="Caminho_623" data-name="Caminho 623" d="M180.76,182.163a2.6,2.6,0,0,0,2.5,2.637,2.5,2.5,0,0,0,2.7-2.343,2.608,2.608,0,0,0-2.51-2.637,2.49,2.49,0,0,0-2.686,2.343Z" transform="translate(-2.382 -1.127)" fill="#263238"/>
      <path id="Caminho_624" data-name="Caminho 624" d="M178.169,178.466c.324.343,2.3-1.118,5.108-1.108s4.9,1.422,5.167,1.078c.147-.147-.186-.765-1.078-1.412a7.069,7.069,0,0,0-4.128-1.284,6.863,6.863,0,0,0-4.069,1.294C178.306,177.7,178,178.309,178.169,178.466Z" transform="translate(-2.331 -1.048)" fill="#263238"/>
      <path id="Caminho_625" data-name="Caminho 625" d="M208.87,182.163a2.608,2.608,0,0,0,2.51,2.637,2.49,2.49,0,0,0,2.686-2.343,2.6,2.6,0,0,0-2.5-2.637,2.49,2.49,0,0,0-2.7,2.343Z" transform="translate(-2.932 -1.127)" fill="#263238"/>
      <path id="Caminho_626" data-name="Caminho 626" d="M206.289,179.056c.324.343,2.3-1.108,5.108-1.1s4.853,1.422,5.157,1.079c.147-.157-.176-.765-1.078-1.422a7.187,7.187,0,0,0-4.128-1.284,6.863,6.863,0,0,0-4.059,1.3C206.426,178.291,206.132,178.948,206.289,179.056Z" transform="translate(-2.881 -1.059)" fill="#263238"/>
      <path id="Caminho_627" data-name="Caminho 627" d="M195.719,199.834c0-.157-1.726-.461-4.549-.833-.716-.069-1.392-.216-1.52-.706a3.628,3.628,0,0,1,.49-2.118l2.128-5.451c2.941-7.755,5.1-14.138,4.785-14.246s-2.941,6.069-5.883,13.834q-1.079,2.863-2.039,5.481a4.118,4.118,0,0,0-.382,2.8,1.8,1.8,0,0,0,1.177,1.049,4.97,4.97,0,0,0,1.216.176C193.944,199.981,195.709,200,195.719,199.834Z" transform="translate(-2.537 -1.062)" fill="#263238"/>
      <path id="Caminho_628" data-name="Caminho 628" d="M193.81,234.006a51.65,51.65,0,0,0,27.227-7.206s-6.863,14.05-27.207,12.109Z" transform="translate(-2.638 -2.046)" fill="#eb996e"/>
      <path id="Caminho_629" data-name="Caminho 629" d="M197.054,207.162a5.03,5.03,0,0,1,4.53-1.863,4.589,4.589,0,0,1,3.186,1.716,2.941,2.941,0,0,1,.206,3.334,3.353,3.353,0,0,1-3.677.922,10.657,10.657,0,0,1-3.579-2.147,2.882,2.882,0,0,1-.794-.824.98.98,0,0,1,0-1.049" transform="translate(-2.696 -1.625)" fill="#eb996e"/>
      <path id="Caminho_630" data-name="Caminho 630" d="M204.091,202.3c-.451,0-.461,3.02-3.079,5.167s-5.883,1.814-5.883,2.245c0,.186.726.588,2.088.627a7.559,7.559,0,0,0,4.9-1.7,6.6,6.6,0,0,0,2.382-4.334C204.64,203.035,204.307,202.28,204.091,202.3Z" transform="translate(-2.663 -1.567)" fill="#263238"/>
      <path id="Caminho_631" data-name="Caminho 631" d="M205,174.058c.275.765,3.079.412,6.363.814s5.951,1.3,6.392.627c.2-.324-.265-1.049-1.343-1.784a10.471,10.471,0,0,0-4.726-1.667,10.648,10.648,0,0,0-4.981.569C205.5,173.107,204.892,173.7,205,174.058Z" transform="translate(-2.856 -0.974)" fill="#263238"/>
      <path id="Caminho_632" data-name="Caminho 632" d="M179.238,170.183c.5.637,2.432,0,4.755,0s4.285.431,4.745-.225c.2-.324-.118-.98-.98-1.569a6.863,6.863,0,0,0-7.647.216C179.3,169.222,179,169.879,179.238,170.183Z" transform="translate(-2.351 -0.883)" fill="#263238"/>
      <path id="Caminho_633" data-name="Caminho 633" d="M248,219.826a18.04,18.04,0,0,1-21.462-19.952c.627-4.99,3.324-10.069,1.588-14.795-2.284-6.245-11.04-8.167-13.363-14.4-1.353-3.618-.137-7.844-1.667-11.4-1.441-3.343-4.951-5.265-8.373-6.5s-7.079-2.088-9.951-4.314-4.657-6.442-2.8-9.569a192.168,192.168,0,0,1,44.395,10.785c3.324,1.235,6.8,2.726,8.765,5.677,2.079,3.118,1.961,7.147,1.8,10.893l-2.559,54.728" transform="translate(-2.587 -0.327)" fill="#263238"/>
      <path id="Caminho_634" data-name="Caminho 634" d="M246.7,226.6a2.324,2.324,0,0,0,.333-.206l.9-.686c.784-.618,1.961-1.529,3.363-2.794a34.728,34.728,0,0,0,4.775-5.02,18.746,18.746,0,0,0,3.8-8.373,12.746,12.746,0,0,0-2.618-10.687,40.827,40.827,0,0,0-4.736-4.039,10.99,10.99,0,0,1-3.7-5.02c-1.5-4.137-.833-8.932-1.412-13.834a27.511,27.511,0,0,0-5.765-14,18.913,18.913,0,0,0-6.02-4.9,36.778,36.778,0,0,0-7.108-2.392,16.579,16.579,0,0,1-6.245-3.079,24.766,24.766,0,0,1-4.53-4.99c-2.549-3.628-4.441-7.491-6.863-10.716a22.975,22.975,0,0,0-4-4.245,15.344,15.344,0,0,0-4.745-2.588,10.138,10.138,0,0,0-9.03.9,8.324,8.324,0,0,0-3.206,6.079,6.1,6.1,0,0,0,1.226,4.186,3.922,3.922,0,0,0,.824.794,1.41,1.41,0,0,0,.333.216,2.227,2.227,0,0,0-.275-.284,4.5,4.5,0,0,1-.735-.833,5.981,5.981,0,0,1-.98-4.049,7.971,7.971,0,0,1,3.147-5.706,9.608,9.608,0,0,1,8.53-.706,14.707,14.707,0,0,1,4.52,2.52,23.384,23.384,0,0,1,3.843,4.157c2.353,3.167,4.206,7.03,6.794,10.785a25.218,25.218,0,0,0,4.667,5.187,17.207,17.207,0,0,0,6.442,3.186,36.04,36.04,0,0,1,6.951,2.353,18.129,18.129,0,0,1,5.745,4.706,26.658,26.658,0,0,1,5.608,13.53c.6,4.736-.088,9.608,1.51,14.011a11.892,11.892,0,0,0,3.922,5.363,41.482,41.482,0,0,1,4.677,3.922,12.089,12.089,0,0,1,2.549,10.1,18.364,18.364,0,0,1-3.569,8.167,37.573,37.573,0,0,1-4.618,5.069c-1.382,1.294-2.5,2.245-3.245,2.941a11.847,11.847,0,0,0-1.069.98Z" transform="translate(-2.561 -0.121)" fill="#455a64"/>
      <path id="Caminho_635" data-name="Caminho 635" d="M251.4,231.1c4.177-4.039,11.3-.529,14.814,4.1s5.99,10.608,11.314,12.942,12.236.324,16.668,4.03c6.157,5.118,2.7,16.971,9.363,21.423,2.637,1.765,6.128,1.706,8.951,3.157,6.657,3.432,6.579,12.824,5.549,20.246-1.4,10.442-2.99,21.227-8.736,30.051s-16.932,14.991-26.874,11.6c-9.559-3.265-14.471-13.579-18.364-22.9q-8.059-19.393-16.138-38.7c-3.108-7.461-6.255-15.04-7.265-23.06s.343-16.668,5.451-22.962" transform="translate(-3.548 -2.096)" fill="#263238"/>
      <path id="Caminho_636" data-name="Caminho 636" d="M254.129,222.059c3.03-.363,5.353,3.353,4.549,6.3s-3.628,4.9-6.52,5.883a9.726,9.726,0,0,1-5.03.578,4.9,4.9,0,0,1-3.814-3.069,2.882,2.882,0,0,1,1.392-3.814c1.961-1.245,3.167-2.226,4.745-3.1,2.412-1.324,2.265-1.5,4.677-2.833" transform="translate(-3.601 -1.953)" fill="#ebebeb"/>
      <path id="Caminho_637" data-name="Caminho 637" d="M182.98,255.175l11.785-8.932,44.424-2.843,1.784,5.961-14.452,90.162,11.4,107.574H175.95Z" transform="translate(-2.288 -2.371)" fill="#6f80fa"/>
      <g id="Grupo_18" data-name="Grupo 18" transform="translate(176.417 400.783)" opacity="0.3">
        <path id="Caminho_638" data-name="Caminho 638" d="M230.6,412.125c-1.422-1.52-3.745-3.6-5.814-3.647-14.844-.324-29.992-1.8-44.836-2.137L178.76,450.3c3.549-6.255,6.912-12.746,7.844-19.9.412-3.118.98-6.863,3.775-8.177,1.608-.755,3.5-.461,5.236-.108,5.363,1.059,10.687,2.441,16.138,2.784s11.167-.461,15.746-3.441a9.657,9.657,0,0,0,3.765-4.069,4.991,4.991,0,0,0-.667-5.265Z" transform="translate(-178.76 -406.34)"/>
      </g>
      <path id="Caminho_639" data-name="Caminho 639" d="M192.887,256.849,191.5,243.956a4.1,4.1,0,0,1,3.706-4.51l40.885-3.7a1.961,1.961,0,0,1,2.108,1.863l.461,15.344L226.82,273.046l-12.167,3.873H199.769l-8.559-9.138Z" transform="translate(-2.587 -2.221)" fill="#6f80fa"/>
      <path id="Caminho_640" data-name="Caminho 640" d="M232.638,248.268A13.9,13.9,0,0,1,231,248.1a29.414,29.414,0,0,0-4.451-.078A43.14,43.14,0,0,0,220,249c-2.441.51-5.1,1.226-7.912,1.912a51.491,51.491,0,0,1-8.049,1.431,20.814,20.814,0,0,1-6.677-.451,13.854,13.854,0,0,1-4.157-1.726,9.81,9.81,0,0,1-.98-.726c-.216-.176-.324-.284-.3-.294s.48.324,1.4.843a15.207,15.207,0,0,0,4.147,1.549,21.128,21.128,0,0,0,6.549.333,54.111,54.111,0,0,0,7.971-1.461c2.8-.676,5.471-1.382,7.932-1.873a39.49,39.49,0,0,1,6.628-.843,23.75,23.75,0,0,1,4.5.235q.794.137,1.206.235C232.5,248.209,232.648,248.249,232.638,248.268Z" transform="translate(-2.601 -2.455)" fill="#263238"/>
      <g id="Grupo_19" data-name="Grupo 19" transform="translate(190.54 245.438)" opacity="0.3">
        <path id="Caminho_641" data-name="Caminho 641" d="M193.9,250.3c-1.1,3.01-1.128,6.736,1.1,9.04,1.8,1.882,4.716,2.353,7.275,1.843a22.954,22.954,0,0,0,7.108-3.2c5.628-3.343,11.354-6.814,17.746-8.236a2.265,2.265,0,0,0,1.147-.48.755.755,0,0,0,0-1.108,1.069,1.069,0,0,0-.529-.147c-5.657-.569-11.275.98-16.815,2.275s-11.471,2.128-16.815.2" transform="translate(-193.165 -247.897)"/>
      </g>
      <path id="Caminho_642" data-name="Caminho 642" d="M201.83,239.1a3.755,3.755,0,0,0-1.4,1.333c-.647,1.039-.608,2.8-.559,4.706.108,3.814.735,6.863.588,6.863a6.668,6.668,0,0,1-.559-1.961,30.891,30.891,0,0,1-.539-4.9,22.663,22.663,0,0,1,.059-2.735,4.726,4.726,0,0,1,.706-2.167,2.834,2.834,0,0,1,1.147-1.029C201.615,239.07,201.821,239.07,201.83,239.1Z" transform="translate(-2.746 -2.287)" fill="#263238"/>
      <path id="Caminho_643" data-name="Caminho 643" d="M212.865,250.284a59.257,59.257,0,0,0-.294-6.236c-.471-3.422-1.608-6.02-1.451-6.079a5.372,5.372,0,0,1,.833,1.657,20.264,20.264,0,0,1,1.127,4.343,19.882,19.882,0,0,1,.127,4.49A5.491,5.491,0,0,1,212.865,250.284Z" transform="translate(-2.976 -2.265)" fill="#263238"/>
      <path id="Caminho_644" data-name="Caminho 644" d="M226.315,236.86a4.03,4.03,0,0,1,.775,1.52,10.726,10.726,0,0,1,.539,4.088,10.559,10.559,0,0,1-1.078,3.99,3.921,3.921,0,0,1-.98,1.4,13.53,13.53,0,0,0,.735-11Z" transform="translate(-3.259 -2.243)" fill="#263238"/>
      <path id="Caminho_645" data-name="Caminho 645" d="M167.007,261.33s-13.942,9.334-17.648,26.2c-2.883,13.256-10.785,83.279-10.785,83.279L124.76,397.69l9.02,21.452h0a32.982,32.982,0,0,0,21.668-6.187l6.069-4.412,11.128-16.5Z" transform="translate(-1.287 -2.722)" fill="#ebebeb"/>
      <path id="Caminho_646" data-name="Caminho 646" d="M191.127,248.71,167.5,261.083l-5.579,18.325-4.971,53.13,9.353,62.288L149.89,447.015l28.305.206.677-30.59,2.824-99.025,2.775-63.082Z" transform="translate(-1.779 -2.475)" fill="#ebebeb"/>
      <path id="Caminho_647" data-name="Caminho 647" d="M180.115,331.373a5.411,5.411,0,0,1-.441-.745l-1.177-2.167c-.49-.98-.98-2.177-1.579-3.569-.284-.706-.529-1.48-.814-2.294s-.6-1.677-.843-2.6c-2.226-7.344-3.7-17.942-3.383-29.629,0-.9.069-1.794.127-2.686v-.157l.147-.059,4.137-1.745-.059.431-4.137-3.324-.088-.069v-.1a35.757,35.757,0,0,1,1.882-11.814c1.039-3.461,2.177-6.442,3.177-8.893s1.873-4.363,2.49-5.657c.314-.657.559-1.157.726-1.481a3.378,3.378,0,0,1,.284-.5,2.38,2.38,0,0,1-.206.529l-.657,1.52c-.569,1.314-1.392,3.245-2.353,5.706s-2.059,5.441-3.059,8.893a35.874,35.874,0,0,0-1.794,11.657l-.1-.167,4.147,3.3.324.265-.382.167-4.137,1.745.157-.216c-.059.873-.1,1.765-.127,2.667-.3,11.638,1.1,22.187,3.226,29.5.225.931.529,1.784.794,2.6s.5,1.6.784,2.3c.578,1.392.98,2.618,1.49,3.579l1.078,2.206A6.479,6.479,0,0,1,180.115,331.373Z" transform="translate(-2.208 -2.584)" fill="#263238"/>
      <path id="Caminho_648" data-name="Caminho 648" d="M161.262,369.293a7.312,7.312,0,0,1-.226-.765q-.206-.833-.559-2.235c-.245-.98-.52-2.157-.794-3.539s-.637-2.941-.912-4.736-.647-3.686-.912-5.765-.529-4.314-.775-6.657c-.431-4.706-.716-9.893-.716-15.344s.324-10.638.765-15.334c.265-2.343.49-4.579.814-6.657s.608-4.01.922-5.765.647-3.333.98-4.726.569-2.579.814-3.539.422-1.677.569-2.226a5.62,5.62,0,0,1,.226-.775,4.523,4.523,0,0,1-.127.794l-.471,2.245c-.216.98-.48,2.167-.726,3.559s-.6,2.941-.863,4.736-.608,3.677-.853,5.755-.52,4.3-.765,6.638c-.412,4.7-.706,9.863-.726,15.3s.275,10.6.667,15.295c.245,2.333.441,4.569.735,6.638s.559,4.01.843,5.765.588,3.343.833,4.736.5,2.588.716,3.559.353,1.686.461,2.245a3.744,3.744,0,0,1,.078.794Z" transform="translate(-1.905 -3.306)" fill="#263238"/>
      <path id="Caminho_649" data-name="Caminho 649" d="M167.655,419.63a10.1,10.1,0,0,1-1.147,2.382,38.539,38.539,0,0,1-3.618,5.245,37.969,37.969,0,0,1-4.432,4.579,10.626,10.626,0,0,1-2.108,1.6,18.865,18.865,0,0,1,1.863-1.863,57.148,57.148,0,0,0,4.285-4.638,56.42,56.42,0,0,0,3.706-5.108,18.929,18.929,0,0,1,1.451-2.2Z" transform="translate(-1.905 -5.817)" fill="#263238"/>
      <path id="Caminho_650" data-name="Caminho 650" d="M277.351,259.751a32.521,32.521,0,0,1,19.942,23.138c7.736,34.08,20.962,79.416,21.178,94.054.255,18.628-7.844,31.374-18.521,33.727-8.412,1.863-84.632-2.314-84.632-2.314l-3.569-28.433,61.768-9.089-8.451-47.14,8.363-65.415Z" transform="translate(-2.988 -2.662)" fill="#ebebeb"/>
      <path id="Caminho_651" data-name="Caminho 651" d="M273.7,257.881l-17.07-6.971-17.991-10.55-.108,3.088h0a18.1,18.1,0,0,1,2.167,12.51l-15,78.1,3.392,57.072,6.971,55.885h54.13l-24.854-58.483,8.775-78.818Z" transform="translate(-3.261 -2.311)" fill="#ebebeb"/>
      <path id="Caminho_652" data-name="Caminho 652" d="M289.241,413.385l-.373.049-1.088.108c-.98.1-2.382.088-4.226.137-3.667,0-9-.078-15.638-.294-13.265-.441-31.727-1.333-52.581-2.539h-.206v-.216c-.422-3.383-.873-6.951-1.324-10.569-.775-6.128-1.52-12.108-2.235-17.824v-.245h.235l47.14-6.863,13.844-1.961,3.716-.5.98-.127h.333l-.324.069-.98.167-3.706.588-13.814,2.108-47.061,7.03.206-.284c.726,5.726,1.48,11.7,2.245,17.824.461,3.628.9,7.2,1.324,10.579l-.235-.216c20.844,1.216,39.316,2.167,52.571,2.706,6.628.255,11.952.4,15.618.451,1.833,0,3.265,0,4.216-.059l1.088-.059Z" transform="translate(-2.985 -4.896)" fill="#263238"/>
      <path id="Caminho_653" data-name="Caminho 653" d="M265.619,320.08a2.018,2.018,0,0,1,.137.529c.078.4.176.892.294,1.51.255,1.382.6,3.275.98,5.579.833,4.785,1.961,11.265,3.216,18.432s2.275,13.667,3.079,18.462c.363,2.314.657,4.206.873,5.6.088.618.157,1.128.216,1.53a2.235,2.235,0,0,1,0,.539,1.875,1.875,0,0,1-.147-.52c-.078-.4-.176-.9-.3-1.51-.255-1.392-.608-3.275-1.039-5.579-.853-4.716-1.961-11.226-3.216-18.432s-2.314-13.726-3.069-18.462c-.353-2.314-.647-4.216-.863-5.608q-.118-.922-.206-1.529a2.482,2.482,0,0,1,.049-.539Z" transform="translate(-4.041 -3.871)" fill="#263238"/>
      <path id="Caminho_654" data-name="Caminho 654" d="M246.529,246a.473.473,0,0,0,.069.2l.157.569c.127.51.343,1.245.549,2.226a71.277,71.277,0,0,1,1.294,8.4,94.011,94.011,0,0,1,.324,12.824c-.167,4.9-.676,10.265-1.412,15.981v.176h-.176l-5.618,1.039.186-.343c.324.863.647,1.784.9,2.736a34.756,34.756,0,0,1-.637,18.932,59.277,59.277,0,0,1-6.549,14.118c-2.333,3.785-4.432,6.687-5.883,8.7l-1.7,2.294c-.176.245-.333.431-.451.588a.8.8,0,0,1-.167.2s0-.078.127-.226l.412-.618c.392-.569.98-1.353,1.608-2.353,1.4-2.039,3.461-4.971,5.736-8.765a60.513,60.513,0,0,0,6.412-14.059c1.618-5.559,2.382-12.167.6-18.629a27.812,27.812,0,0,0-.882-2.686l-.108-.284.3-.059,5.579-1.029-.206.216c.745-5.7,1.284-11.069,1.471-15.932a98.543,98.543,0,0,0-.206-12.746,78.2,78.2,0,0,0-1.147-8.4c-.176-.98-.373-1.726-.461-2.235-.049-.235-.088-.422-.118-.578A.647.647,0,0,1,246.529,246Z" transform="translate(-3.295 -2.422)" fill="#263238"/>
      <path id="Caminho_655" data-name="Caminho 655" d="M246.817,327.392V314.95s.157-3.069-2.431-2.422-2.108,5.5-2.108,5.5-.48,18.932.647,18.775,1.569-1.618,1.569-1.618V327.9Z" transform="translate(-3.583 -3.721)" fill="#6f80fa"/>
      <path id="Caminho_656" data-name="Caminho 656" d="M257.624,328.474a43,43,0,0,1-6.677.255,43,43,0,0,1-6.677-.255,44.515,44.515,0,0,1,6.677-.255A44.515,44.515,0,0,1,257.624,328.474Z" transform="translate(-3.624 -4.029)" fill="#263238"/>
      <path id="Caminho_657" data-name="Caminho 657" d="M282.608,267.32a9.218,9.218,0,0,1-1.392.52,31.442,31.442,0,0,0-3.706,1.6,28.817,28.817,0,0,0-10.02,8.54,21.394,21.394,0,0,0-1.961,3.206,20.786,20.786,0,0,0-1.177,3.294,32.462,32.462,0,0,0-.98,5.883c-.137,1.7-.167,3.088-.176,4.039a12.672,12.672,0,0,1,0,1.49,5.991,5.991,0,0,1-.2-1.431,35.773,35.773,0,0,1,0-4.069,30.3,30.3,0,0,1,.892-5.981,20.59,20.59,0,0,1,1.186-3.392,21.788,21.788,0,0,1,2.01-3.294,27.688,27.688,0,0,1,10.275-8.559,25.572,25.572,0,0,1,3.794-1.471,7.339,7.339,0,0,1,1.451-.373Z" transform="translate(-3.99 -2.839)" fill="#263238"/>
      <path id="Caminho_658" data-name="Caminho 658" d="M58.94,372.99l89.171,33.021L223.282,417.5,133.9,373.931Z" transform="translate(0 -4.905)" fill="#263238"/>
      <path id="Caminho_659" data-name="Caminho 659" d="M97.738,408.922a37.953,37.953,0,0,0-4.765-13.511,9.8,9.8,0,0,1-1.216-2.539,2.882,2.882,0,0,1,.5-2.657c1.147-1.245,3.235-.7,4.647.245a16.334,16.334,0,0,1,6,8.412,48.825,48.825,0,0,1,1.961,10.3" transform="translate(-0.639 -5.228)" fill="#ffbe9d"/>
      <path id="Caminho_660" data-name="Caminho 660" d="M132.541,400.335h-4.432a8.687,8.687,0,0,0-3.922-2.235,3.079,3.079,0,0,0-2.941,1.147c1.961-3.265,4.118-6.863,4.53-7.844.794-1.912-.98-3.343-3.834-3.343s-15.481,17.874-15.481,17.874,7.844-14.383,8.6-16.579c1.9-5.491-4.108-5.883-6.285-3.245-2.706,3.284-13.638,19.825-13.638,19.825s-2.079,3.353-.647,6.54,5.589,1.961,5.589,1.961a5.353,5.353,0,0,0,2.941,4.432c3.2,1.784,7.412-.284,7.412-.284l16.344,3.667,5.883-.588a18.119,18.119,0,0,0,16.118-15.373h0Z" transform="translate(-0.685 -5.131)" fill="#ffbe9d"/>
      <path id="Caminho_661" data-name="Caminho 661" d="M121.9,399.28c.186.118-1.961,3.53-4.8,7.628-1.412,2.049-2.716,3.922-3.686,5.2a13,13,0,0,1-1.647,2.059,13.305,13.305,0,0,1,1.353-2.265c.892-1.363,2.147-3.235,3.559-5.285s2.706-3.922,3.647-5.216l1.137-1.559a3.99,3.99,0,0,1,.441-.559Z" transform="translate(-1.033 -5.419)" fill="#eb996e"/>
      <path id="Caminho_662" data-name="Caminho 662" d="M121.1,417.482a16.139,16.139,0,0,1,1.451-2.667c.98-1.608,2.333-3.794,3.843-6.226.755-1.206,1.48-2.363,2.069-3.432a3.971,3.971,0,0,0,.363-3.03,7.53,7.53,0,0,0-1.392-2.6,2.634,2.634,0,0,1,.627.529,5.079,5.079,0,0,1,1.108,1.961,4.245,4.245,0,0,1-.284,3.343c-.588,1.108-1.3,2.275-2.049,3.49-1.52,2.431-2.941,4.588-3.981,6.147A21.439,21.439,0,0,1,121.1,417.482Z" transform="translate(-1.216 -5.424)" fill="#eb996e"/>
      <path id="Caminho_663" data-name="Caminho 663" d="M129.808,419.236a9.139,9.139,0,0,1,.873-2.539l1.167-2.667a21.815,21.815,0,0,0,1.2-3.285,3.863,3.863,0,0,0-.52-3.186,3.01,3.01,0,0,0-1.167-.833,3.226,3.226,0,0,0-1.216-.343,4.9,4.9,0,0,0-1.755.618,2.089,2.089,0,0,1-.667.275,4.479,4.479,0,0,1,.569-.451,8.017,8.017,0,0,1,.735-.441,2.882,2.882,0,0,1,1.118-.363,3.618,3.618,0,0,1,1.392.314,3.314,3.314,0,0,1,1.353.922,4.206,4.206,0,0,1,.647,3.6,18.767,18.767,0,0,1-1.265,3.373c-.461.98-.9,1.873-1.265,2.618a25.241,25.241,0,0,1-1.2,2.392Z" transform="translate(-1.345 -5.551)" fill="#eb996e"/>
      <path id="Caminho_664" data-name="Caminho 664" d="M132.92,403.76a1.745,1.745,0,0,1,.686.206,8.01,8.01,0,0,1,1.706.98,9.3,9.3,0,0,1,2.637,11.824,7.991,7.991,0,0,1-1.108,1.637c-.314.343-.52.5-.539.48a14.287,14.287,0,0,0,1.324-2.275,9.452,9.452,0,0,0-2.539-11.383,23.578,23.578,0,0,0-2.167-1.471Z" transform="translate(-1.447 -5.507)" fill="#eb996e"/>
      <path id="Caminho_665" data-name="Caminho 665" d="M103.464,394.19a47.889,47.889,0,0,1-3.7,5.883,47.065,47.065,0,0,1-4.108,5.7,47.062,47.062,0,0,1,3.686-5.883,47.725,47.725,0,0,1,4.118-5.7Z" transform="translate(-0.718 -5.32)" fill="#eb996e"/>
      <path id="Caminho_666" data-name="Caminho 666" d="M210.326,383.183l-10.2-2.3-9.8-9.226a7.01,7.01,0,0,0-4.373-1.883l-17.815-.98a6.922,6.922,0,0,0-4.9,1.628L150.49,381.2l55.6,27.011,7.628.677Z" transform="translate(-1.79 -4.823)" fill="#ffbe9d"/>
      <path id="Caminho_667" data-name="Caminho 667" d="M180.282,378.6c0,.078-1.314-.157-3.432-.431a14.388,14.388,0,0,0-8.069.843,20.827,20.827,0,0,0-3.843,2.4c-1.128.843-2.137,1.628-3.03,2.226a16.119,16.119,0,0,1-2.206,1.284,3.178,3.178,0,0,1-.873.324c0-.078,1.167-.618,2.873-1.9.853-.628,1.833-1.441,2.941-2.314a20.229,20.229,0,0,1,3.922-2.49,11.541,11.541,0,0,1,4.549-.981,20.275,20.275,0,0,1,3.775.294,23.651,23.651,0,0,1,2.49.51,2.737,2.737,0,0,1,.9.235Z" transform="translate(-1.953 -4.995)" fill="#eb996e"/>
      <path id="Caminho_668" data-name="Caminho 668" d="M184.191,388.724c0,.078-.726-.245-1.961-.363a10.147,10.147,0,0,0-4.579.637,23.536,23.536,0,0,0-4.2,2.147,8.763,8.763,0,0,1-1.735.98,7.148,7.148,0,0,1,1.53-1.275,18.1,18.1,0,0,1,4.226-2.324,9.373,9.373,0,0,1,4.8-.52,3.637,3.637,0,0,1,1.912.716Z" transform="translate(-2.206 -5.197)" fill="#eb996e"/>
      <path id="Caminho_669" data-name="Caminho 669" d="M207.693,390.236c-.127.078-1.559-2.059-3.451-4.589a55.824,55.824,0,0,1-3.412-4.618,22.894,22.894,0,0,1,3.814,4.314A22.49,22.49,0,0,1,207.693,390.236Z" transform="translate(-2.775 -5.062)" fill="#eb996e"/>
      <path id="Caminho_670" data-name="Caminho 670" d="M179.074,369.326l22.55-21.031a2.157,2.157,0,0,0-.157-3.294h0a2.157,2.157,0,0,0-2.755.108L172.24,368.855" transform="translate(-2.216 -4.349)" fill="#6f80fa"/>
      <g id="Grupo_20" data-name="Grupo 20" transform="translate(170.024 340.207)" opacity="0.3">
        <path id="Caminho_671" data-name="Caminho 671" d="M179.074,369.326l22.55-21.031a2.157,2.157,0,0,0-.157-3.294h0a2.157,2.157,0,0,0-2.755.108L172.24,368.855" transform="translate(-172.24 -344.556)"/>
      </g>
    </g>
    <g id="freepik--Pill--inject-3" transform="matrix(0.966, -0.259, 0.259, 0.966, 433.511, 370.048)">
      <path id="Caminho_490" data-name="Caminho 490" d="M437,67.77c0,1.22.81,2.45,2.43,3.38a12.94,12.94,0,0,0,11.72,0c1.62-.93,2.43-2.16,2.43-3.38V56.87a8.3,8.3,0,1,0-16.6,0Z" fill="#f5f5f5"/>
      <path id="Caminho_491" data-name="Caminho 491" d="M437,82.16a8.3,8.3,0,0,0,16.6,0V67.77c0,1.22-.81,2.45-2.43,3.38a12.94,12.94,0,0,1-11.72,0C437.82,70.22,437,69,437,67.77Z" fill="#6f80fa"/>
      <path id="Caminho_492" data-name="Caminho 492" d="M448.47,86.63a3.17,3.17,0,0,1-3.18-3.17V66.57a11.93,11.93,0,0,1,5.87,1.4c.18.1.33.2.49.31V83.46a3.18,3.18,0,0,1-3.18,3.17Z" fill="#fff" opacity="0.4"/>
      <path id="Caminho_493" data-name="Caminho 493" d="M437,67.77c0,1.22.81,2.45,2.43,3.38a12.94,12.94,0,0,0,11.72,0c1.62-.93,2.43-2.16,2.43-3.38V56.87a8.3,8.3,0,1,0-16.6,0Z" fill="#f5f5f5"/>
      <path id="Caminho_494" data-name="Caminho 494" d="M451.16,71.15a12.94,12.94,0,0,1-11.72,0C437.82,70.22,437,69,437,67.77V69c0,1.23.81,2.45,2.43,3.39a12.94,12.94,0,0,0,11.72,0c1.62-.94,2.43-2.16,2.43-3.39V67.8C453.59,69,452.78,70.22,451.16,71.15Z" opacity="0.1"/>
      <path id="Caminho_495" data-name="Caminho 495" d="M450.17,50.17h0A8.29,8.29,0,0,0,437,56.87v10.9c0,1.22.81,2.45,2.43,3.38a9.879,9.879,0,0,0,2.38,1V55.38C441.82,50.6,447.8,48.85,450.17,50.17Z" fill="#e0e0e0"/>
      <path id="Caminho_496" data-name="Caminho 496" d="M448.47,52.49a3.18,3.18,0,0,0-3.18,3.18V72.56a11.94,11.94,0,0,0,5.87-1.41c.18-.1.33-.2.49-.3V55.67a3.18,3.18,0,0,0-3.18-3.18Z" fill="#fff"/>
      <path id="Caminho_497" data-name="Caminho 497" d="M446.33,90.39l.47-.08.33-.06.37-.1.38-.11.18-.07a8,8,0,0,0,1.56-.74h0a4.521,4.521,0,0,0,.51-.34h0c-2.37,1.31-8.35-.43-8.35-5.21V72.11a9.88,9.88,0,0,1-2.38-1,4.038,4.038,0,0,1-2.4-3.34V82.16a8.31,8.31,0,0,0,8.3,8.3h.77Z" opacity="0.1"/>
    </g>
  </g>
</svg>
