<svg xmlns="http://www.w3.org/2000/svg" width="370.842" height="327.14" viewBox="0 0 370.842 327.14">
  <g id="Grupo_606" data-name="Grupo 606" transform="translate(-855.158 -128)">
    <g id="freepik--Character--inject-540" transform="translate(994.416 128)">
      <path id="Caminho_1547" data-name="Caminho 1547" d="M185.132,87.3c1.257,2.048,4.238,2.451,6.412,1.447s3.676-3.06,4.862-5.147a34.339,34.339,0,0,1,3.756-6.112,11.156,11.156,0,0,1,11.069-3.368,10.191,10.191,0,0,1,7.306,8.792c.34,4.886-3.25,9.393-7.661,11.5S201.387,96.7,196.493,96.5" transform="translate(-21.329 -66.517)" fill="#263238"/>
      <path id="Caminho_1548" data-name="Caminho 1548" d="M321.164,94.966c-4.744-2.269-10.792.506-13.5,5.028s-2.712,10.191-1.66,15.354c.988,4.894,2.6,10.713-.886,14.287-2.728,2.807-7.725,2.965-9.654,6.365-2.783,4.878,3.455,10.595,2.6,16.145-.546,3.51-3.8,5.946-7.045,7.369s-6.831,2.269-9.614,4.467-4.467,6.436-2.372,9.337l18.185,5.708,3.7-6.388c-1.281,2.7-.7,5.993.791,8.555A22.037,22.037,0,0,0,308,187.479c9.409,6.871,20.818,11.646,32.416,11.006" transform="translate(-216.691 -70.785)" fill="#263238"/>
      <path id="Caminho_1549" data-name="Caminho 1549" d="M282.815,98.241c.142-4.862-4.372-8.6-8.863-10.4s-9.535-2.451-13.559-5.163c-3.566-2.372-5.961-6.143-8.982-9.2a29.87,29.87,0,0,0-50.237,13.725c-1.739,6.91-.553,15.077,4.894,19.671,6.325,5.329,15.694,4.143,23.79,2.491s17.268-3.3,24.028,1.463c4.08,2.87,6.412,7.535,8.91,11.86s5.621,8.7,10.334,10.349,11.116-1.178,11.3-6.167" transform="translate(-99.294 -64.595)" fill="#263238"/>
      <path id="Caminho_1550" data-name="Caminho 1550" d="M279.7,104.757c-.53,4.064,2.372,7.709,5.337,10.579s6.238,5.914,6.76,9.978c.6,4.744-2.87,9.44-1.858,14.121.633,2.973,2.949,5.266,4.349,7.962a16.912,16.912,0,0,1,.862,12.468c-1.2,4.1-3.163,13.235-5.977,16.422-7.867,8.8-20.406,16.39-31.91,19.039s-23.458,2.657-35.247,1.937c-9.646-.6-20.738-.15-28.779-13.441-4.167-6.879-6.23-16.018-8.444-23.719-1.905-6.649-3.55-13.773-1.581-20.406,1.154-3.866,3.479-7.3,4.617-11.164,1.423-4.839.9-10,1.478-15.022a34.424,34.424,0,0,1,48.98-27.182" transform="translate(-96.506 -68.447)" fill="#263238"/>
      <path id="Caminho_1551" data-name="Caminho 1551" d="M218.459,123.82c.9-13.852,10.112-30.835,23.909-29.325l43.058,10.982a8.112,8.112,0,0,1,7.242,8.246L289.9,208.331a24.96,24.96,0,0,1-25.5,24.217h0a24.968,24.968,0,0,1-24.423-24.921V192.977c0,.032-17.687-2.973-21.3-26.091C216.838,155.43,217.455,139.2,218.459,123.82Z" transform="translate(-121.031 -70.836)" fill="#ffbe9d"/>
      <path id="Caminho_1552" data-name="Caminho 1552" d="M294.14,153.485a2.965,2.965,0,0,0,2.886,3.012,2.83,2.83,0,0,0,3.052-2.664,2.957,2.957,0,0,0-2.838-3,2.838,2.838,0,0,0-3.1,2.649Z" transform="translate(-189.035 -82.566)" fill="#263238"/>
      <path id="Caminho_1553" data-name="Caminho 1553" d="M291.474,143.188c.372.387,2.617-1.265,5.8-1.249s5.534,1.581,5.859,1.218c.174-.166-.206-.87-1.218-1.581a8.183,8.183,0,0,0-4.689-1.455,7.819,7.819,0,0,0-4.617,1.478C291.656,142.318,291.292,143.014,291.474,143.188Z" transform="translate(-189.989 -80.407)" fill="#263238"/>
      <path id="Caminho_1554" data-name="Caminho 1554" d="M255.53,153.482a2.965,2.965,0,0,0,2.846,3,2.838,2.838,0,0,0,3.06-2.664,2.965,2.965,0,0,0-2.846-3,2.83,2.83,0,0,0-3.06,2.664Z" transform="translate(-119.866 -82.562)" fill="#263238"/>
      <path id="Caminho_1555" data-name="Caminho 1555" d="M251.872,144.028c.372.387,2.617-1.265,5.8-1.249s5.534,1.581,5.859,1.218c.174-.166-.2-.87-1.218-1.581a8.128,8.128,0,0,0-4.688-1.455,7.819,7.819,0,0,0-4.617,1.478C252.03,143.158,251.7,143.854,251.872,144.028Z" transform="translate(-119.078 -80.583)" fill="#263238"/>
      <path id="Caminho_1556" data-name="Caminho 1556" d="M287.468,167.657c0-.174-1.969-.522-5.179-.941-.791-.087-1.581-.253-1.716-.791a4.749,4.749,0,0,1,.546-2.411q1.162-2.941,2.419-6.183c3.36-8.816,5.8-16.058,5.44-16.192s-3.368,6.9-6.728,15.718l-2.317,6.222a4.666,4.666,0,0,0-.427,3.163,2.008,2.008,0,0,0,1.336,1.186,5.187,5.187,0,0,0,1.376.2C285.452,167.824,287.453,167.839,287.468,167.657Z" transform="translate(-166.281 -80.542)" fill="#263238"/>
      <path id="Caminho_1557" data-name="Caminho 1557" d="M276.086,208.69s-7.527,15.852-30.606,13.686v-5.432a58.183,58.183,0,0,0,30.606-8.254Z" transform="translate(-126.57 -94.622)" fill="#eb996e"/>
      <path id="Caminho_1559" data-name="Caminho 1559" d="M279.022,177.5c-.522,0-.538,3.423-3.5,5.874s-6.641,2.056-6.673,2.538c-.047.221.791.672,2.372.719a8.57,8.57,0,0,0,5.534-1.929,7.456,7.456,0,0,0,2.712-4.918C279.639,178.338,279.252,177.476,279.022,177.5Z" transform="translate(-148.466 -88.124)" fill="#263238"/>
      <path id="Caminho_1560" data-name="Caminho 1560" d="M249.234,132.37c.316.87,3.495.466,7.226.925s6.76,1.486,7.258.7c.221-.372-.3-1.186-1.518-2.024a12.65,12.65,0,0,0-11.069-1.241C249.8,131.311,249.1,131.991,249.234,132.37Z" transform="translate(-117.207 -78.287)" fill="#263238"/>
      <path id="Caminho_1561" data-name="Caminho 1561" d="M291.07,131.469c.561.727,2.751,0,5.392-.047s4.87.5,5.392-.261c.221-.364-.126-1.091-1.1-1.779a7.543,7.543,0,0,0-4.388-1.194,7.424,7.424,0,0,0-4.3,1.447C291.133,130.41,290.849,131.122,291.07,131.469Z" transform="translate(-188.392 -77.908)" fill="#263238"/>
      <path id="Caminho_1562" data-name="Caminho 1562" d="M270.763,180.115a20.5,20.5,0,0,1-24.383-22.668c.719-5.669,3.779-11.441,1.811-16.8-2.6-7.116-12.54-9.274-15.18-16.358-1.534-4.111-.158-8.926-1.9-12.959-1.637-3.787-5.621-5.977-9.488-7.377s-8.049-2.372-11.306-4.91-5.3-7.313-3.163-10.863A218.534,218.534,0,0,1,257.6,100.435c3.763,1.4,7.717,3.091,9.946,6.444,2.372,3.542,2.245,8.12,2.048,12.366q-1.463,31.1-2.9,62.176" transform="translate(-90.255 -69.533)" fill="#263238"/>
      <path id="Caminho_1563" data-name="Caminho 1563" d="M148.524,77.12c-.593,5.819-1.178,11.8.411,17.394s5.867,10.895,11.638,11.86c2.728.459,5.8,0,8.041,1.581,4.744,3.439.87,11.488,3.676,16.651,2.522,4.625,9.3,5.044,12.65,9.1,3.7,4.475,1.787,11.211-.791,16.406s-5.772,10.927-4.048,16.469c1.929,6.191,9.33,9.488,11.148,15.71,1.17,4.016-.063,8.958,2.807,12,2.214,2.372,5.89,2.372,9.1,2.1a91.066,91.066,0,0,0,37.555-11.947,21.4,21.4,0,0,1-3.1-10.634l6.46,4.744,14.9-18.564a30.218,30.218,0,0,0-16.738-16.8c-4.507-1.795-10.278-3.313-11.33-8.049-.585-2.617,2.562-7.385.862-13.441,0,0-2.83-11.583-9.535-14.848s-5.772-5.226-7.234-9.685" transform="translate(-32.31 -67.218)" fill="#263238"/>
      <path id="Caminho_1564" data-name="Caminho 1564" d="M258.974,160.992c0-.158-2.079-.087-5.8-.047a54.554,54.554,0,0,1-6.713-.308,26.392,26.392,0,0,1-8.428-2.277,20.215,20.215,0,0,1-4.222-2.712,14.888,14.888,0,0,1-3.423-4.1,15.505,15.505,0,0,1-1.731-5.455c-.316-2.008-.427-4.151-.791-6.4a17.331,17.331,0,0,0-2.277-6.752,9.646,9.646,0,0,0-2.672-2.791,10.911,10.911,0,0,0-3.605-1.51,61.51,61.51,0,0,0-7.377-.791c-2.364-.269-4.625-.893-6.127-2.585a13.038,13.038,0,0,1-2.878-6.254c-.5-2.317-.656-4.744-1.139-7.2a15.655,15.655,0,0,0-2.854-6.886,13.5,13.5,0,0,0-2.68-2.53,15.632,15.632,0,0,0-3.163-1.692,25.855,25.855,0,0,0-12.729-1.32c-3.953.435-7.527,1.044-10.792,1.178a26.8,26.8,0,0,1-4.625-.134A18.083,18.083,0,0,1,161,99.472a14.935,14.935,0,0,1-5.534-3.439,10.278,10.278,0,0,1-2.293-3.447c-.364-.886-.482-1.392-.569-1.376a3.257,3.257,0,0,0,.182,1.51,9.329,9.329,0,0,0,2.087,3.858,14.951,14.951,0,0,0,5.7,3.953,18.81,18.81,0,0,0,4.206,1.186,27.672,27.672,0,0,0,4.862.293c3.4-.047,7.037-.625,10.9-.933a34.211,34.211,0,0,1,5.906,0,20.833,20.833,0,0,1,5.961,1.431,12.231,12.231,0,0,1,4.989,3.676,13.733,13.733,0,0,1,2.419,6.056c.443,2.285.593,4.744,1.123,7.25a15.022,15.022,0,0,0,3.376,7.242,9.187,9.187,0,0,0,3.5,2.372,15.52,15.52,0,0,0,3.9.87,65.142,65.142,0,0,1,7.116.735,8.863,8.863,0,0,1,2.949,1.194,7.677,7.677,0,0,1,2.135,2.206A15.56,15.56,0,0,1,226,140.071c.348,2.111.482,4.262.846,6.38a17.394,17.394,0,0,0,2.032,6.017,16.509,16.509,0,0,0,3.9,4.475,21.4,21.4,0,0,0,4.625,2.807,26.8,26.8,0,0,0,8.926,2.1,47.435,47.435,0,0,0,6.855,0C256.942,161.458,258.982,161.118,258.974,160.992Z" transform="translate(-36.008 -70.167)" fill="#e0e0e0"/>
      <path id="Caminho_1565" data-name="Caminho 1565" d="M203.641,89.9c-.245.111-.126,1.028.443,2.372a16.983,16.983,0,0,0,3.147,4.673,18.1,18.1,0,0,0,4.38,3.518c1.265.688,2.158.909,2.3.672.3-.506-2.372-2.562-5.163-5.59S204.187,89.659,203.641,89.9Z" transform="translate(-31.245 -69.89)" fill="#fff"/>
      <path id="Caminho_1566" data-name="Caminho 1566" d="M184.414,420.252l-4.254,43.825L313.6,464.03l-25.783-52.04Z" transform="translate(-112.444 -136.938)" fill="#fff"/>
      <path id="Caminho_1567" data-name="Caminho 1567" d="M380.446,346.2,354.481,384.48s-5.305-42-5.8-41.058,29.1-40.212,29.1-40.212Z" transform="translate(-312.524 -114.253)" fill="#eb996e"/>
      <path id="Caminho_1568" data-name="Caminho 1568" d="M278.018,237.674c1.028,0,34.116,13.441,37.9,19.655s-19.869,122.762-19.869,122.762l-121.181,2.491-1.194-55.708-9.037-74.533,50.111-16.888,6.681-5.819,13.575,23.64L272.3,229.38Z" transform="translate(-102.902 -98.706)" fill="#fff"/>
      <g id="Grupo_548" data-name="Grupo 548" transform="translate(84.296 226.499)" opacity="0.3">
        <path id="Caminho_1569" data-name="Caminho 1569" d="M302.589,447.37c-8.033-2.1-14.658-8-19.268-14.9s-7.44-14.817-10.16-22.66-5.4-15.813-9.749-22.857A110.351,110.351,0,0,0,252.131,372.5a31.145,31.145,0,0,0-6.325-5.993c-3.044-1.961-6.657-2.791-10.183-3.6L217.058,358.7a21.087,21.087,0,0,1-6.7-2.332,7.165,7.165,0,0,1-3.621-5.787c9.258.933,18.6.648,27.854,1.637s18.643,3.408,26.036,9.061,12.215,14.176,15.955,22.77c9.084,20.9,13.338,43.975,25.372,63.322" transform="translate(-206.74 -350.58)"/>
      </g>
      <path id="Caminho_1570" data-name="Caminho 1570" d="M171.015,264.73s10.049,6.594,12.65,27.585c1.961,15.6,5.874,59.756,5.874,59.756l-47.81-3.993Z" transform="translate(42.005 -106.239)" fill="#fff"/>
      <path id="Caminho_1571" data-name="Caminho 1571" d="M189.719,362a.83.83,0,0,0-.245-.04l-.7-.079-2.736-.269-10.057-.909-33.207-2.83-.854-.071.19.229c1.684-12.7,3.163-24.154,4.3-32.464l1.257-9.812c.134-1.139.237-2.032.316-2.672a6.16,6.16,0,0,1,.071-.7,1.067,1.067,0,0,0,0-.237,1.171,1.171,0,0,0-.055.237,5.45,5.45,0,0,1-.111.688c-.095.632-.229,1.526-.4,2.657-.332,2.372-.791,5.677-1.384,9.8-1.131,8.31-2.7,19.766-4.428,32.416v.213h.221l.854.071,33.207,2.712,10.065.791,2.744.19.712.04Z" transform="translate(41.865 -116.149)" fill="#263238"/>
      <path id="Caminho_1572" data-name="Caminho 1572" d="M214.04,255.519a3.78,3.78,0,0,0,.791-.213l2.182-.7,7.8-2.609-.2-.079,3.653,6.191.095.158.166-.087c1.913-.925,3.953-1.961,6.048-3.076a175,175,0,0,0,15.323-9.243c1.9-1.273,3.4-2.372,4.436-3.115l1.178-.838a2.539,2.539,0,0,0,.4-.332,2.238,2.238,0,0,0-.443.261l-1.218.83c-1.067.712-2.593,1.755-4.515,3-3.827,2.5-9.211,5.827-15.378,9.1-2.079,1.115-4.119,2.151-6.025,3.083l.253.079-3.7-6.159-.071-.119-.134.047-7.756,2.744-2.158.791a5.431,5.431,0,0,0-.727.285Z" transform="translate(-81.539 -101.474)" fill="#263238"/>
      <path id="Caminho_1573" data-name="Caminho 1573" d="M267.864,237.32a1.264,1.264,0,0,0,0,.379,8.375,8.375,0,0,0,.119,1.091,36.783,36.783,0,0,0,.791,3.953,40.766,40.766,0,0,0,1.882,5.669c.435,1.036.925,2.111,1.494,3.163.285.546.585,1.091.909,1.637a4.7,4.7,0,0,0,.561.791,1.241,1.241,0,0,0,1.02.443,1.645,1.645,0,0,0,.949-.514c.245-.237.435-.49.64-.719l1.21-1.415,2.285-2.672a4.182,4.182,0,0,1,1.17-1.028,1.115,1.115,0,0,1,1.265.079,5.248,5.248,0,0,1,.917,1.036l.791,1.067,2.443,3.163.68.854a2.225,2.225,0,0,0,.261.285,2.552,2.552,0,0,0-.19-.332l-.617-.9-2.372-3.257-.791-1.075a5.478,5.478,0,0,0-.965-1.131,1.494,1.494,0,0,0-1.637-.126,4.443,4.443,0,0,0-1.289,1.107c-.735.846-1.51,1.732-2.3,2.657l-1.218,1.407c-.411.459-.791,1.028-1.32,1.1s-.893-.546-1.194-1.067-.617-1.075-.9-1.581c-.569-1.067-1.067-2.127-1.5-3.163a44.271,44.271,0,0,1-1.945-5.59c-.451-1.629-.719-2.973-.893-3.906a11.928,11.928,0,0,0-.253-1.4Z" transform="translate(-155.422 -100.586)" fill="#263238"/>
      <path id="Caminho_1574" data-name="Caminho 1574" d="M260.86,399c-.055.1,10.436,5.977,23.435,13.132S307.871,425,307.927,424.9s-10.436-5.977-23.435-13.133S260.915,398.865,260.86,399Z" transform="translate(-170.571 -134.217)" fill="#263238"/>
      <path id="Caminho_1575" data-name="Caminho 1575" d="M273.03,428.161c0,.111,6.752.569,15.093,1.012s15.1.712,15.109.6-6.752-.569-15.093-1.012S273.038,428.027,273.03,428.161Z" transform="translate(-175.499 -140.316)" fill="#263238"/>
      <path id="Caminho_1576" data-name="Caminho 1576" d="M348.029,353.479l6.784-6.981-6.807-35.7-6.815,23.964Z" transform="translate(-280.969 -115.875)" fill="#fff"/>
      <path id="Caminho_1577" data-name="Caminho 1577" d="M344.4,401.126a.8.8,0,0,0,0-.182v-2.562c0-1.834-.087-4.412-.142-7.59-.127-6.4-.308-15.251-.411-25.024s-.087-18.635.079-25.032c.063-3.2.2-5.787.308-7.574.063-.87.111-1.581.15-2.064v-.53a.578.578,0,0,0,0-.19.513.513,0,0,0-.039.182l-.071.53c-.055.506-.134,1.194-.229,2.056-.15,1.787-.332,4.372-.435,7.582-.237,6.4-.3,15.259-.2,25.039s.324,18.627.53,25.032c.111,3.163.206,5.756.277,7.582.04.87.071,1.581.1,2.064v.538a.7.7,0,0,0,.079.142Z" transform="translate(-272.279 -119.852)" fill="#263238"/>
      <path id="Caminho_1578" data-name="Caminho 1578" d="M311.552,234.058a4.222,4.222,0,0,1,4.214.854c1.882,1.763,1.645,3.763,1.059,5.645a4.072,4.072,0,0,1-1.763,2.467l-7.756-3.645Z" transform="translate(-216.614 -99.862)" fill="#eb996e"/>
      <path id="Caminho_1579" data-name="Caminho 1579" d="M302.4,249.69s3.25,2.222,3.368,2.894c.087.482-.506,1.091-1.423.791a28.16,28.16,0,0,1-3.044-1.629Z" transform="translate(-200.392 -103.171)" fill="#fff"/>
      <g id="Grupo_549" data-name="Grupo 549" transform="translate(100.907 146.519)" opacity="0.3">
        <path id="Caminho_1580" data-name="Caminho 1580" d="M302.4,249.69s3.25,2.222,3.368,2.894c.087.482-.506,1.091-1.423.791a28.16,28.16,0,0,1-3.044-1.629Z" transform="translate(-301.299 -249.69)"/>
      </g>
      <path id="Caminho_1581" data-name="Caminho 1581" d="M357.815,232.159l8.95,8.444-1.992,2.767-9.669-3.455L305.751,211.9a3.629,3.629,0,0,1-1.273-5.108h0a3.621,3.621,0,0,1,4.807-1.225Z" transform="translate(-263.446 -93.866)" fill="#455a64"/>
      <path id="Caminho_1582" data-name="Caminho 1582" d="M312.057,340.186c.553-8.017,50.751-77.34,53.89-81.665l8.7-18,3.684-15.164S398.007,214,399.565,214s9.219,9.8,9.353,11.354a3.716,3.716,0,0,1-1,2.7l-.988,9.923a5.535,5.535,0,0,1,.277,4.214c-.846,2.024-4.246,2.024-4.246,2.024l1.273,4.285s-.285,4.783-1.131,5.629c-.332.332-2.008.569-3.874.221-1.637-.3-2.1-2.68-2.016-3.819-.522.846-2.3,0-2.3,0-.166,2.016-2.269,3.518-2.269,3.518s-3,12.128-3.431,13.686a12.775,12.775,0,0,1-7.116,6.95,8.7,8.7,0,0,0-.98.411c-2.87,10.855-22.936,85.673-27.166,90.71-4.562,5.416-16.92,8.808-28.044,8.238S311.488,348.456,312.057,340.186Z" transform="translate(-311.996 -95.486)" fill="#ffbe9d"/>
      <path id="Caminho_1583" data-name="Caminho 1583" d="M313.977,226.067a18.406,18.406,0,0,0,2.8.182c1.731.055,4.119.1,6.76.111h3.716a13.62,13.62,0,0,0,1.637-.063,2.443,2.443,0,0,1,1.273.3,7.378,7.378,0,0,1,1.629,1.17c.356.324.538.522.561.5s-.126-.245-.451-.609a6.325,6.325,0,0,0-1.581-1.32,2.712,2.712,0,0,0-1.431-.38H316.831a19.07,19.07,0,0,0-2.854.111Z" transform="translate(-236.994 -98.223)" fill="#eb996e"/>
      <path id="Caminho_1584" data-name="Caminho 1584" d="M323.229,225.039a2.244,2.244,0,0,0,1.075-.49,11.07,11.07,0,0,0,2.119-1.913l.221-.261-.34-.221a1.249,1.249,0,0,0,0,.878,2.373,2.373,0,0,0,.356.656,4.815,4.815,0,0,0,.791.862c.514.435.878.617.909.577s-.269-.308-.719-.791a6.671,6.671,0,0,1-.7-.87,1.265,1.265,0,0,1-.261-1.139l.569-1.3-.917,1.075-.213.253a17.1,17.1,0,0,1-1.984,1.945C323.593,224.77,323.2,224.959,323.229,225.039Z" transform="translate(-240.317 -97.198)" fill="#eb996e"/>
      <path id="Caminho_1585" data-name="Caminho 1585" d="M315.271,237.246a23.918,23.918,0,0,0,2.443.095c1.51.04,3.59.15,5.882.348a13.671,13.671,0,0,1,5.534,1.518c1.32.712,2.024,1.336,2.071,1.281s-.142-.2-.459-.474a10.632,10.632,0,0,0-1.463-1.059,12.706,12.706,0,0,0-5.693-1.676,58.112,58.112,0,0,0-5.906-.229,10.937,10.937,0,0,0-2.411.2Z" transform="translate(-236.873 -100.536)" fill="#eb996e"/>
      <path id="Caminho_1586" data-name="Caminho 1586" d="M318.67,236.9a3.953,3.953,0,0,0,3.953-3.083,13.628,13.628,0,0,1-1.676,1.937A13.93,13.93,0,0,1,318.67,236.9Z" transform="translate(-230.974 -99.864)" fill="#eb996e"/>
      <path id="Caminho_1587" data-name="Caminho 1587" d="M320.23,244.688a5.052,5.052,0,0,0,1.637.846,27.389,27.389,0,0,0,4.309,1.044,21.109,21.109,0,0,1,4.23,1.1c1.028.419,1.581.791,1.645.791a4.277,4.277,0,0,0-1.526-1.028,17.021,17.021,0,0,0-4.269-1.241,39.227,39.227,0,0,1-4.293-.909A18.175,18.175,0,0,0,320.23,244.688Z" transform="translate(-241.635 -102.127)" fill="#eb996e"/>
      <path id="Caminho_1588" data-name="Caminho 1588" d="M327.307,254.85a2.527,2.527,0,0,0-.933.546,3.55,3.55,0,0,0-1.194,2.372,2.317,2.317,0,0,0,.277,1.478,3.415,3.415,0,0,0,.791.933c.553.435,1.02.443,1.02.4a4.35,4.35,0,0,1-.791-.617,3.543,3.543,0,0,1-.625-.893,2.15,2.15,0,0,1-.206-1.249,3.779,3.779,0,0,1,1-2.174C327.007,255.135,327.347,254.905,327.307,254.85Z" transform="translate(-240.79 -104.245)" fill="#eb996e"/>
      <path id="Caminho_1589" data-name="Caminho 1589" d="M327.041,254.059c-.047,0,.047.348.277.854a4.174,4.174,0,0,0,1.352,1.716,2.426,2.426,0,0,0,1.17.443,1.929,1.929,0,0,0,1.012-.166c.546-.261.688-.64.64-.656a3.622,3.622,0,0,1-.743.387,2.111,2.111,0,0,1-1.842-.348,5.131,5.131,0,0,1-1.336-1.486C327.286,254.32,327.1,254.011,327.041,254.059Z" transform="translate(-246.461 -104.081)" fill="#eb996e"/>
      <path id="Caminho_1590" data-name="Caminho 1590" d="M330.27,260.7c0,.047.34.174.909.111a3.162,3.162,0,0,0,1.969-1.02,3.218,3.218,0,0,0,.791-2.071c0-.577-.158-.9-.206-.885s0,.348-.087.87a3.439,3.439,0,0,1-.791,1.811,3.368,3.368,0,0,1-1.708,1C330.618,260.649,330.278,260.633,330.27,260.7Z" transform="translate(-251.461 -104.659)" fill="#eb996e"/>
      <path id="Caminho_1591" data-name="Caminho 1591" d="M371.924,215.265a18.312,18.312,0,0,0,4.443-7.005c-.095,0-.933,1.581-2.166,3.534S371.845,215.17,371.924,215.265Z" transform="translate(-326.82 -94.535)" fill="#263238"/>
      <path id="Caminho_1592" data-name="Caminho 1592" d="M362.243,215.5q6.325,3.692,12.864,7.021l.079.047a.506.506,0,0,1-.285.727,1.3,1.3,0,0,1-.893-.079,14.416,14.416,0,0,1-2.1-1.052l-8.578-4.886a2.941,2.941,0,0,1-.917-.7A1.02,1.02,0,0,1,362.243,215.5Z" transform="translate(-317.985 -96.044)" fill="#263238"/>
      <path id="Caminho_1593" data-name="Caminho 1593" d="M175.543,375.954l13.892,21.434.791-26.969,38.789,3.242c.063,1.052-2.791,32.788-7.116,60.168-1.874,11.939-14.05,21-26.138,21h0a24.549,24.549,0,0,1-22.272-14.16l-23.719-59.511Z" transform="translate(-3.827 -128.234)" fill="#ffbe9d"/>
      <path id="Caminho_1594" data-name="Caminho 1594" d="M318.942,268.411c.055-.364-1.178-5.368-1.178-5.368s-60.262-3.012-60.4-2.933l-3.629,2.182Z" transform="translate(-175.957 -105.34)" fill="#fff"/>
      <path id="Caminho_1595" data-name="Caminho 1595" d="M319.576,268.37l-.348-.055-1-.1-3.8-.387-13.931-1.368-46.118-4.412.087.387,2.016-1.218,1.123-.672a2.127,2.127,0,0,1,.561-.293,4.119,4.119,0,0,0,.546.04l2.585.119,5.084.237,9.788.466,17.679.838,24.51,1.131-.071-.063c.419,1.708.743,3.036.972,3.953a12.385,12.385,0,0,1,.285,1.392,5.868,5.868,0,0,0-.206-1.407c-.19-.917-.482-2.253-.893-3.953v-.055h-.063l-24.51-1.3-17.671-.893-9.8-.482-5.084-.237-2.585-.119h-.751a2.276,2.276,0,0,0-.585.3l-1.115.68-2.016,1.21-.538.324.625.055,46.268,4.254,13.907,1.241,3.756.324.965.079Z" transform="translate(-176.591 -105.298)" fill="#263238"/>
      <path id="Caminho_1596" data-name="Caminho 1596" d="M176.917,267.208l.316-.98.8-5.028,56.483-11.52,5.495,4.135-8.27,73.324-57.4,14.295Z" transform="translate(-34.249 -103.103)" fill="#fff"/>
      <path id="Caminho_1597" data-name="Caminho 1597" d="M176.858,267.171v.348a9.049,9.049,0,0,1-.047,1.02c0,.917-.095,2.253-.166,3.993-.134,3.51-.324,8.634-.577,15.133-.466,13.03-1.139,31.626-1.937,53.763v.237l.237-.055L231.728,327.3h.134v-.142l.625-5.463c2.783-24.763,5.4-48.008,7.63-67.853v-.1l-.079-.063-5.534-4.127-.063-.047h-.071L177.9,261.13h-.04v.04c-.411,2.712-.656,4.349-.791,5.028h0c-.269.862-.3.988-.3.988s.047-.119.332-.98h0c.111-.688.387-2.309.838-5.021l-.047.047L234.4,249.824h-.134l5.495,4.143-.071-.158c-2.245,19.845-4.878,43.082-7.685,67.845-.213,1.874-.427,3.74-.617,5.471l.15-.182-57.392,14.318.229.182c.735-22.138,1.352-40.678,1.787-53.7.206-6.507.364-11.63.474-15.141.047-1.747.087-3.083.111-4v-1.036A.71.71,0,0,1,176.858,267.171Z" transform="translate(-34.189 -103.065)" fill="#263238"/>
      <path id="Caminho_1598" data-name="Caminho 1598" d="M303.206,254.14l-5.313,74.075-62.508,12.959-63.03-11.33-.735-69.062,62.808,3.566s.38,2.815,4.989,2.712l3.1-1.059,57.535-11.243Z" transform="translate(-95.294 -104.036)" fill="#455a64"/>
      <line id="Linha_23" data-name="Linha 23" x1="1.637" y2="80.131" transform="translate(137.498 160.321)" fill="#fff"/>
      <path id="Caminho_1599" data-name="Caminho 1599" d="M258.6,347.181c.119,0,.569-17.94,1.028-40.062s.719-40.07.609-40.07-.569,17.932-1.02,40.062S258.492,347.173,258.6,347.181Z" transform="translate(-121.104 -106.729)" fill="#263238"/>
      <path id="Caminho_1600" data-name="Caminho 1600" d="M248.39,345.5v-.19a2.83,2.83,0,0,1,.047-.577c0-.546.079-1.289.134-2.222.119-1.929.245-4.744.387-8.183.277-6.9.546-16.453.751-26.992s.316-20.1.356-27.008V269.14a.624.624,0,0,0,0,.2v.577c0,.538-.04,1.281-.063,2.222,0,1.969-.087,4.744-.158,8.183-.119,6.942-.285,16.477-.474,27.008s-.427,20.082-.633,26.992c-.1,3.431-.19,6.214-.253,8.183,0,.941-.047,1.684-.063,2.222v.577a.529.529,0,0,0-.032.2Z" transform="translate(-102.851 -107.168)" fill="#263238"/>
      <path id="Caminho_1601" data-name="Caminho 1601" d="M240.34,396.05l.245.1Z" transform="translate(-87.005 -133.6)" fill="#ffbe9d"/>
      <path id="Caminho_1602" data-name="Caminho 1602" d="M240.73,396Z" transform="translate(-87.459 -133.59)" fill="#ffbe9d"/>
      <path id="Caminho_1603" data-name="Caminho 1603" d="M240.77,396Z" transform="translate(-87.53 -133.59)" fill="#ffbe9d"/>
      <path id="Caminho_1604" data-name="Caminho 1604" d="M240.69,396Z" transform="translate(-87.387 -133.59)" fill="#ffbe9d"/>
      <path id="Caminho_1605" data-name="Caminho 1605" d="M221.535,336.833a71.581,71.581,0,0,1-6.744-7.211c-1.51-2.451.949-4.151,2.641-4.91S241.4,343.023,241.4,343.023s-18.683-16.6-19.821-17.742-1.882-2.641-.751-5.661,4.744-1.89,6.04-1.7,22.454,17.932,22.454,17.932-12.263-11.86-13.393-12.832-1.51-2.649-1.139-4.91,2.83-2.071,4.53-2.071,28.25,23.585,28.25,23.585l-1.265,12.453,4.5,19.078-20.912,8.1c-3.59-1.51-10.381-10.349-11.7-12.081s-8.871-14.532-8.871-14.532c-3.02-1.7-7.361-8.491-9.061-10.381s-1.131-2.83-.182-4.341c.506-.791,5.432,3.163,9.883,6.942l-1.02-.9S225.2,340.438,221.535,336.833Z" transform="translate(-96.656 -116.944)" fill="#ffbe9d"/>
      <path id="Caminho_1606" data-name="Caminho 1606" d="M220.189,351.218a2.286,2.286,0,0,0,1.17.546,4.617,4.617,0,0,0,3.107-.364,4.672,4.672,0,0,0,2.143-2.285,2.261,2.261,0,0,0,.261-1.265c-.071,0-.166.466-.522,1.139a5,5,0,0,1-2.064,2.04,4.918,4.918,0,0,1-2.87.451C220.656,351.368,220.213,351.131,220.189,351.218Z" transform="translate(-57.367 -123.628)" fill="#eb996e"/>
      <path id="Caminho_1607" data-name="Caminho 1607" d="M233.379,359.888a1.874,1.874,0,0,0,1.115.095,4.277,4.277,0,0,0,3.7-3.558,1.85,1.85,0,0,0-.047-1.115c-.071,0-.071.419-.237,1.052a4.744,4.744,0,0,1-1.257,2.166,4.673,4.673,0,0,1-2.214,1.162C233.814,359.809,233.379,359.809,233.379,359.888Z" transform="translate(-79.175 -125.182)" fill="#eb996e"/>
      <path id="Caminho_1608" data-name="Caminho 1608" d="M244.778,368.561a2.475,2.475,0,0,0,1.3-.119,5.613,5.613,0,0,0,4.056-4.57,2.412,2.412,0,0,0-.04-1.312c-.063,0-.063.5-.245,1.257a6.08,6.08,0,0,1-3.858,4.349,11.852,11.852,0,0,0-1.21.4Z" transform="translate(-100.133 -126.692)" fill="#eb996e"/>
      <path id="Caminho_1609" data-name="Caminho 1609" d="M178.34,399.13c-.095.063,4.317,6.926,9.851,15.323s10.089,15.164,10.183,15.1-4.309-6.926-9.843-15.323S178.434,399.067,178.34,399.13Z" transform="translate(4.225 -134.245)" fill="#eb996e"/>
      <path id="Caminho_1615" data-name="Caminho 1615" d="M279.71,302.188c0,.111,7.369,1.289,16.5,2.625s16.54,2.324,16.556,2.214-7.369-1.289-16.5-2.625S279.726,302.077,279.71,302.188Z" transform="translate(-190.314 -114.109)" fill="#263238"/>
      <path id="Caminho_1616" data-name="Caminho 1616" d="M284.6,306.208c0,.111,6.633,1.257,14.856,2.554s14.9,2.253,14.911,2.143-6.633-1.249-14.848-2.554S284.624,306.1,284.6,306.208Z" transform="translate(-195.781 -114.947)" fill="#263238"/>
    </g>
    <g id="freepik--Plant--inject-540" transform="translate(865.75 16.049)">
      <path id="Caminho_1503" data-name="Caminho 1503" d="M128.628,362.4a35.823,35.823,0,0,1-3.654,2.835,85.361,85.361,0,0,0-15.8,15.523,37.209,37.209,0,0,1-2.891,3.606c-.1-.072.763-1.606,2.409-3.967a64.055,64.055,0,0,1,7.284-8.52,63.051,63.051,0,0,1,8.641-7.131A18.626,18.626,0,0,1,128.628,362.4Z" transform="translate(-12.661 -16.217)" fill="#263238"/>
      <path id="Caminho_1504" data-name="Caminho 1504" d="M129.309,347.13c.233.056-.546,4.015-1.735,8.833s-2.337,8.729-2.586,8.665.554-4.015,1.735-8.833S129.084,347.074,129.309,347.13Z" transform="translate(-16.337 -13.256)" fill="#263238"/>
      <path id="Caminho_1505" data-name="Caminho 1505" d="M128.624,346.175c-.586.257-.755,1.7-.273,2.409a1.8,1.8,0,0,0,2.3.4,1.935,1.935,0,0,0,.763-2.586,1.9,1.9,0,0,0-2.851-.177" transform="translate(-16.953 -12.986)" fill="#455a64"/>
      <path id="Caminho_1506" data-name="Caminho 1506" d="M134.864,353.23c.1.209-1.325,1.068-3.212,1.911s-3.437,1.357-3.533,1.148,1.325-1.076,3.212-1.919S134.768,353.037,134.864,353.23Z" transform="translate(-16.962 -14.451)" fill="#263238"/>
      <path id="Caminho_1507" data-name="Caminho 1507" d="M136.049,351.487a2.867,2.867,0,0,0-1.124,1.437,1.277,1.277,0,0,0,.667,1.542,1.221,1.221,0,0,0,1.124-.241,2.3,2.3,0,0,0,.642-1,1.8,1.8,0,0,0,.072-1.261.883.883,0,0,0-1.028-.554" transform="translate(-18.291 -14.101)" fill="#455a64"/>
      <path id="Caminho_1508" data-name="Caminho 1508" d="M135.823,360.4a1.718,1.718,0,1,1-.369,0" transform="translate(-18.105 -15.855)" fill="#455a64"/>
      <path id="Caminho_1509" data-name="Caminho 1509" d="M89.1,300.4a19.272,19.272,0,0,1,.209,2.875c.064,1.983.153,4.625.257,7.822.177,6.609.361,15.731.514,25.81s.241,19.209.265,25.818v7.822a17.267,17.267,0,0,1-.129,2.875,19.273,19.273,0,0,1-.209-2.867c-.064-1.984-.145-4.626-.249-7.822-.177-6.609-.361-15.739-.522-25.818S89,317.7,89,311.1v-7.83a19.271,19.271,0,0,1,.1-2.867Z" transform="translate(-9.254 -4.225)" fill="#263238"/>
      <path id="Caminho_1510" data-name="Caminho 1510" d="M98.9,290.666A12.736,12.736,0,1,1,85.2,278.99a12.736,12.736,0,0,1,13.7,11.676Z" transform="translate(-6.199)" fill="#fff"/>
      <g id="Grupo_533" data-name="Grupo 533" transform="translate(69.038 284.923)" opacity="0.3">
        <path id="Caminho_1511" data-name="Caminho 1511" d="M86.117,305.911a21.2,21.2,0,0,1,.1-3.686,20.79,20.79,0,0,0-1.3-8.568,11.893,11.893,0,0,0-5.774-6.167,17.34,17.34,0,0,0-3.477-.964c.008-.161.353-.137,1-.137a7.693,7.693,0,0,1,2.706.554,11.668,11.668,0,0,1,6.328,6.36,18.976,18.976,0,0,1,1.116,8.93A11.819,11.819,0,0,1,86.117,305.911Z" transform="translate(-75.67 -286.388)"/>
      </g>
      <g id="Grupo_534" data-name="Grupo 534" transform="translate(79.283 286.458)" opacity="0.3">
        <path id="Caminho_1512" data-name="Caminho 1512" d="M100.507,288.541c0,.257-3.573,0-7.067,2.289s-4.762,5.621-4.987,5.509c-.1-.04.064-.915.747-2.168a11.4,11.4,0,0,1,9.026-5.846A4.213,4.213,0,0,1,100.507,288.541Z" transform="translate(-88.428 -288.299)"/>
      </g>
      <g id="Grupo_535" data-name="Grupo 535" transform="translate(74.205 282.396)" opacity="0.3">
        <path id="Caminho_1513" data-name="Caminho 1513" d="M93.568,288.556c-.145,0-.305-.843-1.092-1.927a5.742,5.742,0,0,0-8.93-.739c-.956.932-1.261,1.767-1.4,1.711s0-.964.956-2.12a5.975,5.975,0,0,1,9.869.8C93.713,287.6,93.656,288.556,93.568,288.556Z" transform="translate(-82.104 -283.241)"/>
      </g>
      <g id="Grupo_536" data-name="Grupo 536" transform="translate(78.256 283.427)" opacity="0.3">
        <path id="Caminho_1514" data-name="Caminho 1514" d="M91.045,291.25c-.249,0-.522-1.727-1.606-3.549s-2.409-2.947-2.281-3.148,1.855.691,3.019,2.722S91.269,291.267,91.045,291.25Z" transform="translate(-87.149 -284.526)"/>
      </g>
      <g id="Grupo_537" data-name="Grupo 537" transform="translate(77.277 286.244)" opacity="0.3">
        <path id="Caminho_1515" data-name="Caminho 1515" d="M89.568,288.151c.056.249-1,.586-1.863,1.437s-1.478,1.831-1.7,1.7.056-1.237,1.108-2.321S89.56,287.95,89.568,288.151Z" transform="translate(-85.93 -288.033)"/>
      </g>
      <path id="Caminho_1516" data-name="Caminho 1516" d="M55.347,349.08c.225-.072,3.726,10.247,7.822,23.031S70.4,395.335,70.187,395.4s-3.726-10.247-7.822-23.023S55.122,349.152,55.347,349.08Z" transform="translate(-2.627 -13.59)" fill="#263238"/>
      <path id="Caminho_1517" data-name="Caminho 1517" d="M61.571,377.648c-.145.153-3.718-2.674-8.191-6.111s-7.974-6.424-7.822-6.609,3.871,2.465,8.384,5.942S61.748,377.455,61.571,377.648Z" transform="translate(-0.7 -16.722)" fill="#263238"/>
      <path id="Caminho_1518" data-name="Caminho 1518" d="M42.991,363.421c-.691.634-.442,2.04.337,2.819s2.586.4,3.212-.53a2.088,2.088,0,0,0-.8-2.827,2.313,2.313,0,0,0-2.907.763" transform="translate(-0.116 -16.292)" fill="#455a64"/>
      <path id="Caminho_1519" data-name="Caminho 1519" d="M64.336,342.82c.257.048-.506,3.726-2.024,8.03s-2.409,7.846-2.666,7.805.345-3.75,1.863-8.079S64.135,342.78,64.336,342.82Z" transform="translate(-3.464 -12.42)" fill="#263238"/>
      <path id="Caminho_1520" data-name="Caminho 1520" d="M64.678,338.8c-.851.61-.891.972-1.213,1.967a1.94,1.94,0,0,0,1.156,2.513,2.166,2.166,0,0,0,2.24-1.518,2.666,2.666,0,0,0,0-2.554,1.486,1.486,0,0,0-2.281-.249" transform="translate(-4.208 -11.597)" fill="#455a64"/>
      <path id="Caminho_1521" data-name="Caminho 1521" d="M46.829,376.079c-.08-.217,1.421-1.052,3.365-1.871s3.59-1.309,3.686-1.1-1.405,1.06-3.357,1.879S46.918,376.3,46.829,376.079Z" transform="translate(-0.951 -18.32)" fill="#263238"/>
      <path id="Caminho_1522" data-name="Caminho 1522" d="M42.8,374.944c-.578.305-.8,1.718-.8,2.3a1.9,1.9,0,0,0,.9,1.453,2.273,2.273,0,1,0-.112-3.758" transform="translate(0 -18.6)" fill="#455a64"/>
      <path id="Caminho_1523" data-name="Caminho 1523" d="M50.652,345.719a3.027,3.027,0,0,0,5.228,2.666,2.176,2.176,0,0,0,.586-1.727,3.5,3.5,0,0,0-2.73-2.513,3.124,3.124,0,0,0-3.084,1.606" transform="translate(-1.689 -12.685)" fill="#455a64"/>
      <path id="Caminho_1524" data-name="Caminho 1524" d="M103.025,361.9a15.613,15.613,0,0,1-1.012,3.373q-1.245,3.549-2.8,7.982c-1.068,2.939-2.024,5.621-2.875,7.966-.755,2.032-1.237,3.276-1.357,3.212a79.92,79.92,0,0,1,3.429-11.491C100.648,366.71,102.8,361.8,103.025,361.9Z" transform="translate(-10.433 -16.12)" fill="#263238"/>
      <path id="Caminho_1525" data-name="Caminho 1525" d="M116.558,351.39a10.905,10.905,0,1,1-8.4-12.929A10.905,10.905,0,0,1,116.558,351.39Z" transform="translate(-10.436 -11.519)" fill="#fff"/>
      <g id="Grupo_538" data-name="Grupo 538" transform="translate(88.053 329.468)" opacity="0.3">
        <path id="Caminho_1526" data-name="Caminho 1526" d="M103.212,360.154a19.006,19.006,0,0,1,.948-3.011,17.98,17.98,0,0,0,1-7.332,10.2,10.2,0,0,0-3.212-6.424,19.342,19.342,0,0,0-2.594-1.678c.048-.153,1.333,0,2.971,1.213a10.006,10.006,0,0,1,3.646,6.8,15.98,15.98,0,0,1-1.277,7.621A8.469,8.469,0,0,1,103.212,360.154Z" transform="translate(-99.348 -341.659)"/>
      </g>
      <g id="Grupo_539" data-name="Grupo 539" transform="translate(94.165 335.351)" opacity="0.3">
        <path id="Caminho_1527" data-name="Caminho 1527" d="M118.781,349.928c-.048.249-2.939-.8-6.336.209s-5.268,3.437-5.445,3.252.241-.755,1.1-1.606a9.7,9.7,0,0,1,4.1-2.409,9.556,9.556,0,0,1,4.762-.169C118.162,349.43,118.821,349.8,118.781,349.928Z" transform="translate(-106.96 -348.982)"/>
      </g>
      <g id="Grupo_540" data-name="Grupo 540" transform="translate(91.881 329.685)" opacity="0.3">
        <path id="Caminho_1528" data-name="Caminho 1528" d="M113.3,347.988c-.137,0-.072-.8-.466-1.839a4.9,4.9,0,0,0-7.083-2.754c-1.012.514-1.47,1.116-1.606,1.028s.225-.8,1.277-1.542a5.123,5.123,0,0,1,7.958,3.1C113.659,347.233,113.386,348.012,113.3,347.988Z" transform="translate(-104.116 -341.945)"/>
      </g>
      <g id="Grupo_541" data-name="Grupo 541" transform="translate(96.015 330.416)" opacity="0.3">
        <path id="Caminho_1529" data-name="Caminho 1529" d="M110.843,349.315c-.249-.056-.072-1.55-.506-3.292s-1.237-3-1.044-3.156,1.405,1,1.871,2.963S111.051,349.4,110.843,349.315Z" transform="translate(-109.263 -342.852)"/>
      </g>
      <g id="Grupo_542" data-name="Grupo 542" transform="translate(93.768 333.157)" opacity="0.3">
        <path id="Caminho_1530" data-name="Caminho 1530" d="M110.187,346.565c0,.257-.948.305-1.847.8s-1.662,1.116-1.839.932.305-1.044,1.453-1.686S110.235,346.365,110.187,346.565Z" transform="translate(-106.466 -346.261)"/>
      </g>
      <path id="Caminho_1531" data-name="Caminho 1531" d="M73.755,333.43a8.279,8.279,0,0,1,.418,1.815c.233,1.349.514,3.011.8,4.963.667,4.2,1.534,10.006,2.409,16.422s1.67,12.23,2.192,16.446c.225,1.967.41,3.638.57,5a7.332,7.332,0,0,1,.088,1.847,8.1,8.1,0,0,1-.418-1.807q-.337-2.024-.8-4.963c-.667-4.192-1.534-10.006-2.409-16.43s-1.67-12.238-2.192-16.414c-.225-1.967-.41-3.638-.57-4.995A7.846,7.846,0,0,1,73.755,333.43Z" transform="translate(-6.25 -10.557)" fill="#263238"/>
      <path id="Caminho_1532" data-name="Caminho 1532" d="M80.043,317.217a10.9,10.9,0,1,1-13.435-7.557A10.9,10.9,0,0,1,80.043,317.217Z" transform="translate(-3.279 -5.889)" fill="#fff"/>
      <g id="Grupo_543" data-name="Grupo 543" transform="translate(55.989 310.115)" opacity="0.3">
        <path id="Caminho_1533" data-name="Caminho 1533" d="M71.369,332.616a18.523,18.523,0,0,1-.562-3.108,18.028,18.028,0,0,0-2.513-6.954,10.239,10.239,0,0,0-5.806-4.216,19.538,19.538,0,0,0-3.068-.281c-.016-.161,1.164-.634,3.212-.305a10,10,0,0,1,6.384,4.336,15.988,15.988,0,0,1,2.409,7.34A9.2,9.2,0,0,1,71.369,332.616Z" transform="translate(-59.42 -317.638)"/>
      </g>
      <g id="Grupo_544" data-name="Grupo 544" transform="translate(66.087 308.139)" opacity="0.3">
        <path id="Caminho_1534" data-name="Caminho 1534" d="M80.889,315.27c.072.249-2.971.658-5.509,3.132s-3.076,5.485-3.317,5.4c-.1,0-.128-.8.225-1.959a9.636,9.636,0,0,1,6.641-6.424C80.118,315.118,80.881,315.166,80.889,315.27Z" transform="translate(-71.995 -315.191)"/>
      </g>
      <g id="Grupo_545" data-name="Grupo 545" transform="translate(60.541 306.35)" opacity="0.3">
        <path id="Caminho_1535" data-name="Caminho 1535" d="M74.919,316.624c-.128.056-.426-.634-1.269-1.405a4.9,4.9,0,0,0-7.549.843c-.658.932-.8,1.67-.932,1.646s-.177-.8.418-1.959a5.139,5.139,0,0,1,8.5-.948C74.911,315.789,75.007,316.608,74.919,316.624Z" transform="translate(-65.089 -312.972)"/>
      </g>
      <g id="Grupo_546" data-name="Grupo 546" transform="translate(63.446 307.599)" opacity="0.3">
        <path id="Caminho_1536" data-name="Caminho 1536" d="M73.086,319.563c-.241.064-.8-1.341-1.967-2.682s-2.489-2.08-2.409-2.3,1.7.225,3.027,1.751S73.3,319.531,73.086,319.563Z" transform="translate(-68.706 -314.522)"/>
      </g>
      <g id="Grupo_547" data-name="Grupo 547" transform="translate(63.535 309.591)" opacity="0.3">
        <path id="Caminho_1537" data-name="Caminho 1537" d="M71.437,317.072c.1.233-.707.707-1.277,1.55s-.956,1.759-1.2,1.67-.209-1.06.506-2.16S71.373,316.871,71.437,317.072Z" transform="translate(-68.817 -316.998)"/>
      </g>
      <path id="Caminho_1538" data-name="Caminho 1538" d="M73.271,460.3l-9.9-71.374h42.585L97.266,460.3Z" transform="translate(-4.209 -21.213)" fill="#263238"/>
      <path id="Caminho_1539" data-name="Caminho 1539" d="M103.837,423.6c0,.193-7.982.353-17.819.353s-17.827-.161-17.827-.353,7.982-.361,17.827-.361S103.837,423.4,103.837,423.6Z" transform="translate(-5.159 -28.093)" fill="#fafafa"/>
      <path id="Caminho_1540" data-name="Caminho 1540" d="M103.1,429.321c0,.2-7.637.361-17.056.361S69,429.522,69,429.321,76.629,429,86.048,429,103.1,429.128,103.1,429.321Z" transform="translate(-5.318 -29.214)" fill="#fafafa"/>
      <path id="Caminho_1541" data-name="Caminho 1541" d="M102.721,434.783c0,.2-7.388.361-16.486.361s-16.494-.161-16.494-.361,7.388-.353,16.494-.353S102.721,434.591,102.721,434.783Z" transform="translate(-5.464 -30.271)" fill="#fafafa"/>
      <path id="Caminho_1542" data-name="Caminho 1542" d="M102.3,440.723c0,.2-7.1.361-15.86.361s-15.868-.161-15.868-.361,7.1-.353,15.868-.353S102.3,440.531,102.3,440.723Z" transform="translate(-5.627 -31.345)" fill="#fafafa"/>
      <path id="Caminho_1543" data-name="Caminho 1543" d="M101.994,446.151c0,.2-6.778.361-15.137.361s-15.137-.161-15.137-.361,6.778-.361,15.137-.361S101.994,445.959,101.994,446.151Z" transform="translate(-5.854 -32.412)" fill="#fafafa"/>
      <path id="Caminho_1544" data-name="Caminho 1544" d="M101.22,451.581c0,.193-6.529.353-14.575.353s-14.575-.161-14.575-.353,6.529-.361,14.575-.361S101.22,451.381,101.22,451.581Z" transform="translate(-5.923 -33.482)" fill="#fafafa"/>
      <path id="Caminho_1545" data-name="Caminho 1545" d="M101.153,457.011c0,.193-6.344.353-14.166.353s-14.157-.161-14.157-.353,6.336-.361,14.157-.361S101.153,456.811,101.153,457.011Z" transform="translate(-6.072 -34.551)" fill="#fafafa"/>
      <path id="Caminho_1546" data-name="Caminho 1546" d="M100.771,462.441c0,.193-6.087.353-13.6.353s-13.6-.161-13.6-.353,6.087-.361,13.6-.361S100.771,462.241,100.771,462.441Z" transform="translate(-6.22 -35.621)" fill="#fafafa"/>
    </g>
    <ellipse id="Elipse_88" data-name="Elipse 88" cx="7.774" cy="7.774" rx="7.774" ry="7.774" transform="translate(988.604 241.683)" fill="#ebebeb" opacity="0.163"/>
    <ellipse id="Elipse_89" data-name="Elipse 89" cx="7.774" cy="7.774" rx="7.774" ry="7.774" transform="translate(860.854 263.061)" fill="#ebebeb" opacity="0.163"/>
    <ellipse id="Elipse_90" data-name="Elipse 90" cx="2.854" cy="2.854" rx="2.854" ry="2.854" transform="translate(920.438 278.26)" fill="#ebebeb" opacity="0.163"/>
    <ellipse id="Elipse_91" data-name="Elipse 91" cx="9.908" cy="9.908" rx="9.908" ry="9.908" transform="matrix(0.232, -0.973, 0.973, 0.232, 983.122, 341.484)" fill="#ebebeb" opacity="0.163"/>
    <ellipse id="Elipse_92" data-name="Elipse 92" cx="9.387" cy="9.387" rx="9.387" ry="9.387" transform="translate(917.158 228.442)" fill="#ebebeb" opacity="0.163"/>
    <ellipse id="Elipse_93" data-name="Elipse 93" cx="7.774" cy="7.774" rx="7.774" ry="7.774" transform="translate(870.604 362.683)" fill="#ebebeb" opacity="0.163"/>
    <ellipse id="Elipse_94" data-name="Elipse 94" cx="7.774" cy="7.774" rx="7.774" ry="7.774" transform="translate(974.854 279.061)" fill="#ebebeb" opacity="0.163"/>
    <ellipse id="Elipse_95" data-name="Elipse 95" cx="2.854" cy="2.854" rx="2.854" ry="2.854" transform="translate(892.438 406.26)" fill="#ebebeb" opacity="0.163"/>
    <ellipse id="Elipse_96" data-name="Elipse 96" cx="9.908" cy="9.908" rx="9.908" ry="9.908" transform="matrix(0.232, -0.973, 0.973, 0.232, 988.122, 437.484)" fill="#ebebeb" opacity="0.163"/>
    <ellipse id="Elipse_97" data-name="Elipse 97" cx="9.387" cy="9.387" rx="9.387" ry="9.387" transform="translate(855.158 309.442)" fill="#ebebeb" opacity="0.163"/>
  </g>
</svg>
