<svg id="ic-actions-add-simple" xmlns="http://www.w3.org/2000/svg" width="84" height="84" viewBox="0 0 84 84">
  <rect id="Retângulo_24" data-name="Retângulo 24" width="84" height="84" fill="none"/>
  <g id="Layer" transform="translate(10.325 10.325)">
    <path id="Caminho_62" data-name="Caminho 62" d="M3,14.5A3.5,3.5,0,0,1,6.15,11h56.7a3.5,3.5,0,0,1,0,7H6.15A3.5,3.5,0,0,1,3,14.5Z" transform="translate(-3 17)" fill="#b5bcc7"/>
    <path id="Caminho_63" data-name="Caminho 63" d="M14.5,3A3.5,3.5,0,0,1,18,6.15v56.7a3.5,3.5,0,0,1-7,0V6.15A3.5,3.5,0,0,1,14.5,3Z" transform="translate(17 -3)" fill="#b5bcc7"/>
  </g>
</svg>
