<svg xmlns="http://www.w3.org/2000/svg" width="25.845" height="25.759" viewBox="0 0 25.845 25.759">
  <g id="logout" transform="translate(0 -0.85)">
    <g id="Grupo_272" data-name="Grupo 272" transform="translate(0 0.85)">
      <g id="Grupo_271" data-name="Grupo 271" transform="translate(0 0)">
        <path id="Caminho_752" data-name="Caminho 752" d="M12.879,24.462H3.22a1.074,1.074,0,0,1-1.073-1.073V4.07A1.074,1.074,0,0,1,3.22,3h9.66a1.073,1.073,0,0,0,0-2.147H3.22A3.224,3.224,0,0,0,0,4.07V23.389a3.224,3.224,0,0,0,3.22,3.22h9.66a1.073,1.073,0,1,0,0-2.147Z" transform="translate(0 -0.85)" fill="#fa7070"/>
      </g>
    </g>
    <g id="Grupo_274" data-name="Grupo 274" transform="translate(8.586 6.217)">
      <g id="Grupo_273" data-name="Grupo 273">
        <path id="Caminho_753" data-name="Caminho 753" d="M187.039,113.913l-6.526-6.44A1.073,1.073,0,1,0,179.006,109l4.663,4.6h-12.5a1.073,1.073,0,1,0,0,2.147h12.5l-4.663,4.6a1.073,1.073,0,1,0,1.507,1.528l6.526-6.44a1.073,1.073,0,0,0,0-1.528Z" transform="translate(-170.1 -107.165)" fill="#fa7070"/>
      </g>
    </g>
  </g>
</svg>
