<svg xmlns="http://www.w3.org/2000/svg" width="22.138" height="25.3" viewBox="0 0 22.138 25.3">
  <path id="bell" d="M21.711,17.9c-.955-1.026-2.741-2.569-2.741-7.624a7.8,7.8,0,0,0-6.322-7.667V1.581a1.58,1.58,0,1,0-3.161,0v1.03a7.8,7.8,0,0,0-6.322,7.667c0,5.055-1.786,6.6-2.741,7.624A1.544,1.544,0,0,0,0,18.975a1.583,1.583,0,0,0,1.586,1.581H20.551a1.582,1.582,0,0,0,1.586-1.581,1.543,1.543,0,0,0-.425-1.073Zm-18.375.282c1.049-1.382,2.195-3.673,2.2-7.878,0-.01,0-.019,0-.029a5.534,5.534,0,1,1,11.069,0c0,.01,0,.019,0,.029.005,4.205,1.152,6.5,2.2,7.878ZM11.068,25.3a3.162,3.162,0,0,0,3.161-3.162H7.907A3.162,3.162,0,0,0,11.068,25.3Z" transform="translate(0.001)" fill="#adb5c0"/>
</svg>
