<svg xmlns="http://www.w3.org/2000/svg" width="20.384" height="20.384" viewBox="0 0 20.384 20.384">
  <g id="pencil" transform="translate(0 -0.002)">
    <g id="Grupo_551" data-name="Grupo 551" transform="translate(0 0.002)">
      <path id="Caminho_1617" data-name="Caminho 1617" d="M19.841,3.31,17.061.528a1.9,1.9,0,0,0-2.622,0L1.987,13.1a.466.466,0,0,0-.117.2L.017,19.8a.464.464,0,0,0,.573.573l6.486-1.855a.465.465,0,0,0,.2-.117L19.841,5.933a1.855,1.855,0,0,0,0-2.623Zm-7.42.589L14.126,5.6l-8.9,8.9L4.584,13.23a.463.463,0,0,0-.414-.256H3.427ZM1.138,19.248l.6-2.112L3.25,18.645ZM6.486,17.72l-2.217.633L2.032,16.117,2.665,13.9H3.883l.8,1.6a.463.463,0,0,0,.207.207l1.6.8V17.72Zm.927-.762v-.742a.463.463,0,0,0-.256-.414l-1.278-.639,8.9-8.9,1.705,1.705ZM19.187,5.288,17.144,7.313,13.073,3.241,15.1,1.2a.948.948,0,0,1,1.31,0l2.78,2.78a.926.926,0,0,1,0,1.309Z" transform="translate(0 -0.002)" fill="#d6dadf"/>
    </g>
  </g>
</svg>
