<svg xmlns="http://www.w3.org/2000/svg" width="16.649" height="20.384" viewBox="0 0 16.649 20.384">
  <g id="trash" transform="translate(0)">
    <path id="Caminho_1618" data-name="Caminho 1618" d="M16.6,4.556l-.45-1.349a1.255,1.255,0,0,0-1.192-.859H11.172V1.116A1.117,1.117,0,0,0,10.056,0H6.592A1.118,1.118,0,0,0,5.476,1.116V2.348H1.693A1.255,1.255,0,0,0,.5,3.207L.051,4.556a1.01,1.01,0,0,0,.958,1.33h.47l1.035,12.8a1.852,1.852,0,0,0,1.836,1.694h8.156a1.852,1.852,0,0,0,1.836-1.695l1.035-12.8h.26a1.01,1.01,0,0,0,.958-1.33ZM6.67,1.194H9.977V2.348H6.67Zm6.482,17.4a.651.651,0,0,1-.645.6H4.351a.651.651,0,0,1-.645-.6L2.678,5.886h11.5ZM1.265,4.691l.369-1.106a.062.062,0,0,1,.059-.043H14.954a.062.062,0,0,1,.059.043l.369,1.106Zm0,0" transform="translate(0)" fill="#fa7070"/>
  </g>
</svg>
